<?xml version="1.0" encoding="UTF-8"?>
<svg id="Layer_1" xmlns="http://www.w3.org/2000/svg" version="1.1" viewBox="0 0 236.4 71.5">
  <!-- Generator: Adobe Illustrator 29.8.2, SVG Export Plug-In . SVG Version: 2.1.1 Build 3)  -->
  <defs>
    <style>
      .st0 {
        fill: #253c81;
      }

      .st1 {
        fill: #e95a25;
      }
    </style>
  </defs>
  <g>
    <g>
      <path class="st1" d="M95.2,20.4l-4.9-10c0,0-.2-.2-.3-.2-.2,0-.4.2-.4.5v10.9h-4.1v-11.7c0-1.8.5-2.9,1.5-3.7.7-.5,1.6-.9,2.7-.9,2,0,3.2,1.2,4,2.9l3.6,7.8c0,.3.2.3.4.3s.3,0,.4-.3l3.6-7.8c1-1.7,2.2-2.9,4.2-2.9s2.1.4,2.7,1c.9.7,1.5,1.8,1.5,3.7v11.6h-4.1v-10.9c0-.3-.2-.5-.4-.5s-.3,0-.3.2l-4.9,10c-.5,1-1.6,1.5-2.7,1.5s-2.2-.5-2.7-1.5Z"/>
      <path class="st1" d="M132.6,20.9c0,.3.2.5.3.7h-4.8c0-.2,0-.4-.2-.5l-.8-1.9h-9.4l-.8,1.9c0,.2-.2.4-.2.5h-4.9c0-.3.2-.5.3-.7l5.7-12.6c.8-2,2.3-2.9,4.6-2.9s3.7,1,4.6,2.9l5.8,12.6ZM125.5,15.6l-2.5-5.7c-.2-.4-.5-.5-.7-.5s-.5,0-.7.5l-2.5,5.7h6.4Z"/>
      <path class="st1" d="M138.9,5.7v6.5l7.2-5.9c.3-.2.5-.5.6-.6h6c0,.2-.3.3-.5.5l-8.8,6.8c0,0-.2.2-.2.3s0,.2.2.3l9.4,7.6c.2.2.5.4.6.5h-6.3c-.2-.2-.5-.5-.7-.6l-7.6-6.4v7.1h-4.3V5.7h4.3Z"/>
      <rect class="st1" x="155.1" y="5.7" width="4.3" height="15.9"/>
      <path class="st1" d="M181.6,18.5c0,2.4-1.5,3.4-3,3.4s-2.4-.4-3.1-1.3l-8.7-10.1c0-.2-.3-.2-.4-.2-.2,0-.4.2-.4.5v10.8h-4.2v-12.6c0-2.7,1.6-3.8,3.7-3.8s2.5.4,3.5,1.6l7.8,9.3c0,.2.3.2.4.2s.4-.2.4-.5V5.7h4.2v12.8h0Z"/>
      <path class="st1" d="M192.1,21.6c-2.8,0-4.9-1-6.4-2.6-1.3-1.4-2-3.3-2-5.4s1-4.4,2.6-5.9c1.4-1.3,3.3-2.1,5.9-2.1h8.6v4.2h-8.6c-1.5,0-2.3.4-3,1s-1.2,1.6-1.2,2.7.4,1.8,1,2.6c.6.7,1.7,1.3,3.2,1.3h4.1c.2,0,.3,0,.3-.4v-4.3h4.2v7.7c0,.6-.4,1-1,1h-7.6Z"/>
    </g>
    <g>
      <path class="st0" d="M85.4,30.9h-11.6c-.5,0-.8,0-1,.3s-.4.5-.4.8.2.6.4.8c.2.2.5.3.9.3h7.1c1.8,0,3,.5,3.9,1.5.9.9,1.4,2.1,1.4,3.4s-.5,2.3-1.2,3.1c-.9,1-2.2,1.6-4.1,1.6h-12.5v-4.1h11.7c.6,0,1-.2,1.2-.4s.3-.5.3-.7,0-.6-.4-.8c-.2-.3-.5-.4-1.2-.4h-6.6c-2.1,0-3.4-.5-4.2-1.5s-1.4-2-1.4-3.4.5-2.5,1.4-3.4c.8-.9,2.1-1.5,4.2-1.5h11.8v4.3h.2Z"/>
      <path class="st0" d="M96.2,42.8c-2.9,0-5-1-6.5-2.7-1.3-1.4-2.1-3.3-2.1-5.5s1-4.5,2.6-6c1.5-1.3,3.4-2.1,6-2.1h3.4c2.6,0,4.6.8,6,2.1,1.6,1.5,2.6,3.6,2.6,6s-.8,4-2.1,5.5c-1.5,1.6-3.6,2.7-6.5,2.7h-3.4.2ZM96.2,30.9c-1.5,0-2.4.4-3,1-.7.7-1.2,1.7-1.2,2.7s.4,1.9,1,2.6,1.7,1.3,3.2,1.3h3.4c1.6,0,2.6-.5,3.2-1.3.6-.6,1-1.6,1-2.6s-.5-2.1-1.2-2.7-1.6-1-3-1h-3.4Z"/>
      <path class="st0" d="M127.2,26.6v4.3h-12c-.5,0-.6.3-.6.7v1.7h12.6v4h-12.6v5.4h-4.3v-13.2c0-2,1-2.9,2.9-2.9h14.1,0Z"/>
      <path class="st0" d="M147.4,26.6v4.3h-7.1v11.9h-4.4v-11.9h-7.1v-4.3h18.6Z"/>
      <path class="st0" d="M162.8,30.6l-2.5,8.9c-.7,2.5-2.2,3.6-4.7,3.6s-4.4-1.6-4.7-3.6l-2-12.1v-.7h4.6v.6l1.7,11.1c0,.4.3.5.5.5s.5,0,.5-.5l2.5-8.7c.6-2.3,1.9-3.4,4.6-3.4s3.8,1.1,4.4,3.3l2.4,8.8c0,.4.3.5.5.5s.5-.2.5-.5l1.8-11.1v-.6h4.5v.7l-2.1,12.2c-.4,2.1-1.8,3.6-4.8,3.6s-3.9-1.2-4.6-3.6l-2.3-8.9c0-.4-.3-.5-.5-.5s-.5,0-.5.5h0Z"/>
      <path class="st0" d="M197.3,42c0,.3.2.5.3.7h-4.9c0-.2,0-.4-.2-.5l-.8-1.9h-9.5l-.8,1.9c0,.2-.2.4-.2.5h-5c0-.3.2-.5.3-.7l5.8-12.8c.9-2,2.4-3,4.7-3s3.8,1,4.7,3l5.9,12.8h0ZM190.1,36.7l-2.5-5.8c-.2-.4-.5-.5-.7-.5s-.5,0-.7.5l-2.5,5.8h6.4Z"/>
      <path class="st0" d="M203.7,42.8h-4.3v-15.1c0-.6.4-1,1.1-1h11.5c2,0,3.2.6,4.1,1.6.8.8,1.3,1.9,1.3,3.2s-.4,2.5-1.6,3.4c1.1.6,1.6,1.5,1.6,3.4v4.8h-4.4v-4.3c0-1-.5-1.5-1.7-1.5h-7.5v5.8-.2ZM211.3,33.3c.6,0,.9-.2,1.2-.5.2-.3.3-.5.3-.8s0-.6-.4-.9c-.3-.3-.6-.5-1.2-.5h-7.3c-.3,0-.4.2-.4.4v2.4h7.8Z"/>
      <path class="st0" d="M236.4,26.6v4.3h-12.3c-.3,0-.4.2-.4.4v1.8h12.6v3.1h-12.6v1.9c0,.3,0,.5.4.5h12.3v4.1h-14.8c-1.5,0-2.3-.7-2.3-2.3v-11.7c0-1.5.7-2.2,2.3-2.2h14.8Z"/>
    </g>
    <g>
      <path class="st1" d="M179.6,38.2l1-.2c2.5-.4,4.8.4,6.9,2.1.9,1,1.5,2.1,1.6,3.3v.5c.5,2.7-.6,6.4-3.5,10.9-2.9,4-5.8,6.3-8.5,6.7-1.4-.3-2.1-.6-2.2-1.2l1.5-.5c1.5-.6,3.5-2.4,5.9-5.5,3.1-4.7,4.4-8.5,3.9-11.5v-.4c-.4-2.1-1.7-2.9-4.2-2.6-3.8.5-7.3,2.8-10.5,6.9-2.4,3.5-3.3,7.3-2.7,11.5v.6c0,.3-.2.5-.5.5-.6,0-1.4-.2-2.2-1v-.3c0,0-.3-1.2-.3-1.2-.5-3.9.5-7.8,3-11.5,1.9-2.5,3.9-4.2,6-5.3,1.8-1,3.5-1.6,4.9-1.8ZM173.9,45.2h.3c.8-.2,1.6,0,2.3.5,0,0,.2.2.2.4-1,4.8-1.8,10.4-2.3,16.8-.2,2.5-.3,5.1-.4,8.1-.2.3-.4.4-.6.5h-.3c-.6.2-1.3,0-1.7-.6h0c-.2-1.5,0-6,.4-13.7.4-4,.9-7.8,1.6-11.4.2-.2.4-.4.6-.4h0Z"/>
      <path class="st1" d="M193.4,49.6h.2c.5,0,.9,0,1.3.5-.4,3.7-.5,6-.4,7.1h0c.5-.5.8-1.2,1.2-2.2.3-.6.7-1.6,1.1-2.7,0,0,.2-.2.3-.2h.2s.2,0,.3.2v.2c0,.5-.5,1.7-1.3,3.5-.7,1.5-1.4,2.2-1.7,2.2h0c-1.2,0-1.8-.4-1.9-1.4-.8,1.4-1.5,2.1-2,2.2h-.2c-1.2.2-1.9-.2-2.3-1.2,0,0,0-.2,0-.4v-.5c-.3-1.3,0-3.3.6-6.2.2-.3.5-.4.7-.5.9,0,1.4.2,1.5.5-.5,3.1-.8,5-.7,5.9v.5h0c0,.2,0,.3,0,.4.5-.2,1.3-2.5,2.5-6.9,0-.6.3-1,.6-1h0Z"/>
      <path class="st1" d="M206,47.1h0c.5,0,1,0,1.3.4,0,0,0,.2,0,.4v.2c0,.5,0,2-.3,4.6,0,1.4,0,2.4,0,2.8h0c0,.3,0,.5.2.5.3-.4.5-.9.9-1.6.8-1.6,1.5-2.8,1.9-3.8,0-.2.3-.4.5-.4h0c.2,0,.3,0,.4.2h0c0,.2,0,.5-.3.8-.7,1.5-1.3,2.7-1.9,3.7-.7,1.4-1.5,2.1-2.1,2.2h0c-.3,0-.6,0-1.1-.3-.2-.2-.4-.5-.5-1.1,0-.8,0-2.4,0-4.7v-1.3h0c-.5,1.3-1.2,3.4-2.3,6.5-.2.4-.4.5-.7.6-.3,0-.5,0-.7-.5v-.5c0-.5,0-2-.2-4.7v-.5h0c-.2,0-.5.7-.9,2.2-.3.8-.6,2.3-1.2,4.4,0,.4-.2.5-.3.5,0,.2-.4.3-.6.3h0c-.5,0-.7,0-1.1-.2-.2-.2-.3-.4-.4-.5h0v-2.7c0-1.6.2-2.7.3-3.6,0-.2.4-.4.7-.5h0c.5,0,.9,0,1.3.3v.2h0s0,.7-.2,2c.5-1,.7-1.8,1-2.4.5-1,1-1.6,1.4-1.6.8,0,1.5.8,1.7,2.8h0c1.3-3.1,2.3-4.7,3-4.8h0Z"/>
      <path class="st1" d="M215.7,45.9h.3c.8,0,1.3.2,1.3.5h0c-.6,2.7-.8,4.9-.5,6.4v.2c0,.3.2.6.3.9h.2c.4-.5.8-1.3,1.2-2.4.6-1.8,1-2.7,1-2.8.2,0,.3-.2.4-.2.3,0,.5,0,.5.2h0c-1.2,4.2-2.5,6.4-3.6,6.6h-.2c-.7,0-1.3-.4-1.7-1.3,0-.3-.2-.5-.2-.8v-.3h0c-.7,1.6-1.5,2.4-2,2.5-1,.2-1.8-.2-2.4-.9-.2-.3-.3-.6-.4-1v-.3c-.3-1.3,0-2.7.6-4.5.6-1.4,1.5-2.1,2.7-2.3.5,0,1.1,0,1.7.4h0c.2-.5.5-.8.9-.9h0ZM212.1,53.3v.2c0,.4.2.5.4.5.4-.4.7-.8.9-1.6.4-.7.8-1.8,1.3-3.3-.3-1-.6-1.5-.9-1.5-.6,0-1.2,1.6-1.6,4.7v.9h0Z"/>
    </g>
  </g>
  <g>
    <path class="st0" d="M39.8,31.5s3.8,2.8,10.1-3.3c6.3-6.1,6.5-20.3-.4-21.2-6.9-.9-15,12.4-13.7,18,1.3,5.6,3.9,6.5,3.9,6.5Z"/>
    <path class="st0" d="M23.4,24.9c1.6.7,6.2,2.4,10.5-3.8C38.6,14.2,38.6-.6,31.3,0s-11.1,8.5-11.9,14.3,2.5,9.9,4.1,10.6Z"/>
    <path class="st0" d="M13.2,10.4c-4.4-.4-9.9,1.1-10.5,12-.6,10.9,7.8,10.8,9.6,10.8s5.9-1,7-5.5-.7-6.9-.9-7.9-.8-8.9-5.2-9.3Z"/>
    <path class="st0" d="M56.4,27.8c-4.3,0-6.3,2.8-8.7,4.1-2.4,1.3-5.6,2.5-6.2,7.5s3.1,8.3,5.3,8.9,7.7,2,11.9-6.2c4.3-8.2,1.1-14.4-2.3-14.4Z"/>
    <path class="st0" d="M25.7,29.5s1.1-.5,4.8.4,4.8,2.5,5.7,4c.8,1.5,2.4,6,2.6,8.3.4,5.7,12.9,11.4,4.5,20.3-8.4,8.9-15.6.2-15.9-.4s-1.7-3.5-2.8-4.3-6.5-3.1-7.2-3.1-6,1.8-7.3,1.5S-2.1,53.5.3,43.7c2.4-9.8,11.2-7.4,13.7-7.9,2.6-.4,8.8-5.5,11.6-6.4Z"/>
  </g>
</svg>