<?xml version="1.0" encoding="UTF-8"?>
<svg id="Layer_1" xmlns="http://www.w3.org/2000/svg" version="1.1" viewBox="0 0 261.4 67.6">
  <!-- Generator: Adobe Illustrator 29.8.2, SVG Export Plug-In . SVG Version: 2.1.1 Build 3)  -->
  <defs>
    <style>
      .st0, .st1 {
        fill: #253c81;
      }

      .st1 {
        fill-rule: evenodd;
      }
    </style>
  </defs>
  <path class="st1" d="M39.6,14.5c.1.4,0,1.7-.4,1.7-.7-.3-.6-1.6.4-1.7h0ZM37.1,18.1h2c0,0-.6-1.2-.6-1.2l-1.4,1.2h0ZM45.4,10.4c-1-.1-3.3.5-2.8.9.2.2,1.4.3,1.7.3-.4.3-2.3,0-2.7-.3.7-.4,1.5-.8,2-1.8,1.8,0,3.3.6,2.7,1.4-.1-.2-.4-.5-.8-.6h0ZM42.8,9.3c.1,0,.2,0,.4.1-.2.3-1.3,1.5-1.7,1.3.3-.3,1.2-1,1.4-1.5h0ZM39,11.6c1.4-.7.7.4,1.8-.4,0,.5,0,1.2-.4,1.7-1-1.2-.2-1-1.4-.5,0-.3,0-.6,0-.9h0ZM40.5,8.3l.2.4c.2.2.4,0,.7.2-.5.7-1.5,0-.9-.6h0ZM40.4,15.1c-.5-.5-.2-1.4-.3-1.6.1-.5.9,0,.3,1.6h0ZM40.6,16.7c0,1.4-.8.8-1.1,0,.3,0,.7-.3,1-.6l.2.6h0ZM41.1,10.1c-.2,0-.4.9-.8.7v-.6c-.3.2-.8.9-1.3.7.2-.5.9-1.2,1.4-1.2s.8.3,1.1.2c.6-.3.4-1,.7-.7,0,.6-.4,1-1.1,1h0ZM38.3,15.1c-.1,2.3-4.4,3.1-4.5,1.9,1.2.4,3.6-1,4.5-1.9h0ZM41.4,16.6c0,.5,1.8,1.3,2.2.7-.2.3-1.6-.2-2.2-.7h0ZM38.2,12.2c.2-.1.3.3.2.7-.5,1.1-3.8,3.2-4.6,1.6,1.6,0,3.4-.6,4.4-2.3h0ZM39.5,12.8c.2-.4.3,1.6-1.3,1.7-.4-.3.8-1.2,1.3-1.7h0ZM35,11.9c.5,0,3.5.3,3-1.6-1.2.2-2.6.4-2.9-.4,1.4.5,3.1,0,3.6-.5-.6,0-1.6-1-.9-2,.2.7.8,1.6,1.5,1.7-.2-.5-.7-1.6-.4-1.8.4.3.6.4.8.7,0,0-.2,1,0,1.3-.5.2-.9.5-1.2.9,0,.4-.2.5,0,1-.4.8-2.8,1.4-3.4.6h0ZM33.7,11.2c1.1.1,2.2.2,3.2,0-1.6,0-2.4-.4-2.4-1.7,1.1.2,2.2,0,3-.3-.8-.8-.6-1.7,0-2.6l.8.8c0-.3,0-.6.3-.8.3,0,.7.3,1.5.9.2-.4.5-.7,1-.8.4.8.9,1.6,1.8,2.1,1.2.4,3.4.3,3.7,1.2.5,1.3.1,1.8-.7,2.1.5-1.1-1.3-1.6-1.7-.9l1,.2c.3,0-.1.9-.8.9-.4,0-2.8,0-2.8,0s-.4,1.8,0,3c.4,1.2,2.3,2.2,3,1.1.4.5-.5,1.7-1.5,1.7-.7.2-2.1-.5-1.9-.9,0,0-.3,1-.7,1.1-.3.2-1.6-1.2-1.7-1.9-.3.6-2.2,2.1-3.5,1.8-.7,0-2.2-.3-2.3-1.9.2.8,4.2,0,4.4-1.4-.8.8-1.8.8-2.3.8-1.2.3-2.3-1.4-1.6-1.9,0,.8,3.5,0,3.5-.9-1.3.3-2.4-.1-3.1-1.6h0ZM24.8,15c-.2,0-.3.2-.6,0-.1-.3,0-.9,0-.9s.4-.3.5,0c0,.1,0,.7,0,.9h0ZM25.5,13.5c-.7.3-.6.6-.5,1.2.2.2.6,0,.8-.2,0-.7-.1-.9-.4-.9h0ZM26.5,12.5c-.3.2-.4.4-.4.6s0,.5.2.9c.1.1.3.1.4,0,.1-.1.3-.3.4-.6,0-.2,0-.4-.1-.5,0-.2,0-.3,0-.3,0,0,0,0-.2,0,0,0-.2,0-.2,0h0ZM25.8,11.3c-.5.8-.1.8,0,1.4.2.2.7-.4.9-.7-.1-.5-.3-.7-.5-1,0,0-.3,0-.5.3h0ZM25.4,12.1c-.7.3-.7.6-.5,1.2.2.2.5,0,.8-.2-.1-.7-.2-.8-.3-1h0ZM24.6,12.7c-.7.3-.7.6-.5,1.2.2.2.5.2.7-.3,0-.7-.1-.8-.2-.9h0ZM16.5,9.9c-1.4.7-1.1,2.7.6,2.5l-.4-.6c0-.3.4-.7.8-.6-.1-.6,0-1.2.3-1.8-.3,0-1.1.4-1.3.6h0ZM16.6,10.4c.1,0,.4-.2.6-.3-.1.9-.5,1-.9,1.4-.2-.3,0-.9.3-1.1h0ZM19.8,10.7c-.3-.5-1.1,0-1.2-.2,0,0,0-.9,1-1.3.3,1.3,1,1.6,1.1,2.3-.2.7-.2.8-1.5.5,0,0,.5-.2.6-.2.1-.3.2-.7,0-1.1h0ZM17.3,12.3c1.5.3,3.2.8,3.5.3,1.2-1.2-.6-2-.9-4.1-.8.2-1.6.8-1.9,1.5-.1.4-.1.8,0,1.1.4,0,1.1,0,1.2.1-.3.4-1.5.5-1.9,1.1h0ZM22.8,9.1c-.3-.3-1,0-.9.2,0,1.8,2,.4.9-.2h0ZM24.1,11c-.3.2-.9,1-1.1,1.4.4,1.3.3,2.4.3,3.1h-.5c0-.7,0-1.8-.2-2.3-.3,0-.6-.4-.5-.6.8-1.3-1.1-2.4-1.2-4.2.2,0,.6,0,1,0,.3-.2.6-.3.8-.6.5-.1,1.4.4,1,.8.7.7,1.6,1.4.4,2.5h0ZM23.8,15.6c.2-1.6-.3-2.6-.2-3.1.1-.1.6-1.3,1,0,.2-.2.4-.5.6-.7-.1-.2-.3-.4-.4-.6.2-.1.4.1.5.2.2.1.5-.7.5-.7,0-.5-1.1-1.3-1.5-1.9-.1-.2,0-.4,0-.6-.1-.5-1.5-1.3-2.1-1-1,1.2-1.7,0-2.1.9,0,1.5,1,2.6,1.4,3.8,0,.3-.4.9-.4,1.1.2.4.8.5.9.8,0,.6,0,1.2,0,1.9,0,.4.2.7.4.6h1c.2,0,.3-.2.2-.6h0ZM25.5,14.8c-.7.2-.5.7-.3,1.3.2.2.9-.1,1.1-.4,0-.4,0-.9-.1-.9,0,0-.5,0-.6,0h0ZM24.7,16.3c-.2,0-.4.3-.7,0-.1-.3-.1-.9,0-.9s.5-.3.6,0c.1.1,0,.7,0,.9h0ZM26.2,18.2c-.2,0-1.1.1-1.3,0-.2-.3,0-1.5,0-1.7.1,0,.3-.2.5-.1.4.4.7,1.7.7,1.8h0ZM25.4,17.7c0-.3-.2-.6,0-.8,0,.1.4.7.3,1.1-.2,0-.3-.2-.3-.3h0ZM22.9,18.1l.8-1.6h.9c0,.4,0,1.3-.1,1.7-.4.2-1.6.1-1.6-.1h0ZM23.7,17.7c.1-.2.3-.5.4-.8.1-.2,0,.4,0,.9-.5,0-.4,0-.4-.1h0ZM22.6,18.1c-.2.2-1.5.2-1.6,0,.2-.3,1-1.2,1.6-1.7.4,0,.9,0,1,.1,0,.3-.8,1.5-.9,1.6h0ZM21.9,17.8c.3-.3.4-.7.8-.9.2,0,.1.4-.3.9-.4,0-.5,0-.5,0h0ZM20.4,18.2c-.4,0-1.3,0-1.8-.4.7-.5,2.5-1.7,2.8-1.8.3-.1.7.3.8.4,0,.2-1.5,1.6-1.8,1.8h0ZM19.9,17.6c.5-.5,1-.8,1.5-1.1.2.2-.7.8-1,1.1-.3,0-.4,0-.5,0h0ZM28,18.1c-.2-.2-1.2-1.9-1.3-2.3,0-.4.7-.4.9-.5.4.3,1.5,2.2,1.5,2.7-.3.2-.7.3-1.1.2h0ZM27.5,16.6c0-.3-.4-.7-.2-.9.2,0,.9,1.4,1.1,2.1-.3.5-.5-.7-.8-1.2h0ZM26.8,14c-.7.3-.5.6-.3,1.2.2.2.5,0,.8-.3,0-.3,0-.9,0-.9,0,0-.3,0-.4,0h0ZM27.6,18c-.1.3-.7.2-1,0-.3-.4-.8-1.5-.8-1.9.2-.2.4-.3.6-.4.4.7.8,1.4,1.2,2.1h0ZM26.5,17.4c0-.3-.3-.7-.2-1,0,.1.8,1.1.6,1.5-.3.2-.5-.5-.5-.5h0ZM33.3,1.1h.5s.4,3.9.4,3.9h-.5s0-1,0-1h-.5l-.2,1h-.4s.7-3.9.7-3.9h0ZM33.7,3.4v-1.3c0,0,0-.6,0-.6h0v.6c0,0-.3,1.3-.3,1.3h.4ZM34.4,1.1h.4s0,2.7,0,2.7c0,.3,0,.5,0,.5,0,0,.1.1.2.1s.1,0,.2,0c0,0,0-.1.1-.2,0,0,0-.2,0-.4V1.1h.5v2.8c0,.4-.1.7-.2.9-.1.2-.3.3-.5.3-.3,0-.5,0-.6-.3-.1-.2-.2-.5-.1-.9V1.1h0ZM37.3,1.8h-.5s-.1,3.2-.1,3.2h-.4s.1-3.2.1-3.2h-.5s0-.6,0-.6h1.4c0,0,0,.6,0,.6h0ZM38.7,3.5c0,.4,0,.7,0,.9,0,.2,0,.4-.2.6,0,.1-.3.2-.5.2-.3,0-.5-.1-.6-.4,0-.3-.1-.7,0-1.2h0c0,0,0-.6,0-.6h0c0-.1,0-.2,0-.3,0,0,0-.2,0-.4,0-.2,0-.3,0-.5,0-.1,0-.2,0-.3,0-.2.2-.3.3-.3,0,0,.2,0,.3,0,.2,0,.4.1.5.3,0,.2.2.4.2.7,0,.3,0,.5,0,.9v.6h0ZM37.7,2.4v1.4c0,.5,0,.7.2.7.2,0,.3-.2.3-.7v-1.3c0-.2,0-.3,0-.5,0-.2-.1-.3-.2-.3,0,0-.2,0-.2.2,0,.1,0,.3,0,.5h0ZM39.1,1.3h.4s.3,1.9.3,1.9v1.1c.1-.6.2-1.1.2-1.3,0-.3,0-.5,0-.8v-.8c0,0,.5,0,.5,0l-.3,3.8h-.4s-.3-1.9-.3-1.9v-1c-.1.4-.1.7-.2,1.1,0,.3,0,.6,0,.8v1c0,0-.5,0-.5,0l.3-3.9h0ZM42.1,3.8c0,.4,0,.7-.1.9,0,.2-.1.4-.3.5-.1.1-.3.2-.5.2-.3,0-.5-.2-.5-.5,0-.3,0-.7,0-1.2h0c0,0,0-.6,0-.6h0s0,0,0,0c0,0,0-.2,0-.2,0-.1,0-.2,0-.4,0-.2,0-.3,0-.4,0-.1,0-.2.1-.3,0-.2.2-.3.3-.3,0,0,.2,0,.3,0,.2,0,.4.1.4.3,0,.2.1.4.1.7,0,.3,0,.5,0,.9v.6h0ZM41.2,2.7v1.4c-.2.5-.1.7,0,.8.2,0,.3-.2.4-.7l.2-1.3c0-.2,0-.4,0-.5,0-.2,0-.3-.2-.3,0,0-.2,0-.2.2,0,.1-.1.3-.1.5h0ZM42.6,1.6h.6v2.8s0-.7,0-.7l.5-2h.6c0,0-.5,3.9-.5,3.9h-.4s.3-2.2.3-2.2l.2-1.3h0l-.8,3.5h-.2s0-3.6,0-3.6h0l-.2,1.4-.2,2.1h-.4s.5-3.9.5-3.9h0ZM45.6,1.9h.5c0,0-.1,3.9-.1,3.9h-.4c0,0,0-1,0-1h-.5c0,0-.3.9-.3.9h-.4s1.2-3.8,1.2-3.8h0ZM45.6,4.2v-1.3c0,0,.2-.6.2-.6h0v.6c-.1,0-.5,1.2-.5,1.2h.4ZM48.4,2.2c.8,0,1.4.3,1.2.9l-.4,2.6c0,.5-.8.5-1.5.2l.6-3.7h0ZM48.8,2.7c.3,0,.5.1.5.4l-.4,2.5c0,.2-.3.3-.6.2,0,0,.2-1.2.2-1.2,0,0,.3,0,.3,0v-.5c0,0-.2,0-.2,0l.2-1.3h0ZM51.8,2.9h.7c0,0,0,2.1,0,2.1v.7c0,0,0-.7,0-.7l.5-2h.7c0,0-.6,3.9-.6,3.9h-.4c0,0,.3-2.2.3-2.2l.2-1.3h0l-1,3.4h-.2s0-3.6,0-3.6h0l-.2,1.5-.3,2h-.4c0,0,.6-3.9.6-3.9h0ZM54,3.2l1.1.2v.6c0,0-.8-.1-.8-.1l-.2,1h.7c0,.1,0,.6,0,.6h-.7c0-.1-.2,1.1-.2,1.1h.7c0,.1,0,.7,0,.7l-1.1-.2.6-3.8h0ZM55.5,5.5h0v-2c0,0,.4,0,.4,0v1c0,.1,0,.3,0,.4h0c0,0,0-.2.1-.3l.4-.9h.4c0,0-.9,1.8-.9,1.8v2c0,0-.4,0-.4,0v-1c0-.2,0-.3,0-.4,0,.1,0,.3-.2.4l-.5.9h-.4c0,0,.9-1.9.9-1.9h0ZM57.1,3.8h.4c0,.1-1,3.8-1,3.8h-.4c0-.1,1-3.8,1-3.8h0ZM58.4,5.4c.1-.5.1-.7,0-.8-.2,0-.4.1-.5.6l-.4,1.3c0,.3-.1.5-.1.6,0,.1,0,.2.2.3,0,0,.2,0,.3-.1,0-.1.1-.3.2-.6h.4c0,.4-.2.6-.2.8,0,.2-.2.3-.3.5-.2.1-.3.2-.5.1-.2,0-.3-.1-.4-.3,0-.1-.1-.3,0-.6,0-.2,0-.5.2-.9l.2-.6c.1-.4.2-.7.4-1,0-.2.2-.4.4-.5.1,0,.3-.1.5,0,.3,0,.4.2.4.5,0,.3,0,.6-.1,1h-.4ZM60.1,6.9c0,.4-.2.6-.3.8,0,.2-.2.4-.3.5-.1.1-.3.1-.5,0-.3,0-.4-.3-.4-.6,0-.3,0-.7.2-1.2h0c0,0,.1-.5.1-.5h0s0,0,0,0c0,0,0-.1,0-.2,0,0,0-.2.1-.4,0-.2.1-.3.2-.4,0-.1.1-.2.2-.3.1-.2.3-.3.3-.3,0,0,.2,0,.3,0,.2,0,.3.2.4.4,0,.2,0,.4,0,.7,0,.2-.1.5-.2.8l-.2.6h0ZM59.4,5.7l-.4,1.3c-.1.5-.1.7,0,.8.2,0,.3-.2.5-.6l.4-1.3c0-.2,0-.3,0-.5,0-.2,0-.3-.1-.3,0,0-.2,0-.3.1,0,0-.2.3-.2.5h0ZM2.3,5.3h.4c0-.1.9,2.4.9,2.4,0,.2.2.4.3.5,0,0,.2,0,.3,0,0,0,.1,0,.1,0,0,0,0-.1,0-.2,0,0,0-.3,0-.4l-1-2.5.4-.2,1,2.6c.1.4.2.7.2.9,0,.2-.2.4-.5.5-.2,0-.5,0-.6,0-.2-.1-.3-.4-.5-.8l-1-2.6h0ZM4.1,4.6h.4c0-.1,1,1.5,1,1.5l.5,1c-.2-.6-.4-1-.5-1.2,0-.3-.2-.5-.3-.8l-.3-.8h.4c0-.1,1.2,3.6,1.2,3.6h-.4c0,.1-1-1.5-1-1.5l-.5-.9c.1.3.3.7.4,1,.1.3.2.6.3.8l.3.9h-.4c0,.1-1.2-3.6-1.2-3.6h0ZM5.8,4.1h.4c0-.1,1.1,3.6,1.1,3.6h-.4c0,.1-1.1-3.6-1.1-3.6h0ZM8.1,3.5l1.1-.2v.6c.1,0-.6.2-.6.2l.2.9h.7c0-.1.1.4.1.4h-.7c0,.1.3,1.3.3,1.3h.7c0-.1.1.4.1.4l-1.1.2-.8-3.8h0ZM8,7.1v-.6c-.1,0-.5-2.8-.5-2.8h.4c0,0,.5,3.8.5,3.8h-.5c0,.1-1.4-3.5-1.4-3.5h.4c0,0,1,2.6,1,2.6l.2.6h0ZM9.5,3.2l.7-.2c.3,0,.6.2.7.8,0,.3,0,.5,0,.7,0,.2,0,.3-.2.4,0,0,.1,0,.2,0,0,0,0,.1.1.2,0,0,0,.2,0,.2,0,0,0,.2,0,.3,0,.3,0,.5.1.7,0,.2,0,.3.1.3h0c0,0-.4.2-.4.2,0,0,0-.2,0-.4,0-.2,0-.3,0-.4v-.3c0-.2-.1-.3-.2-.4,0,0-.2-.1-.3,0h-.2s.3,1.7.3,1.7h-.4c0,0-.7-3.8-.7-3.8h0ZM10.2,3.7h-.3c0,0,.2,1.1.2,1.1h.3c0,0,.1-.1.1-.2,0,0,0-.2,0-.4,0-.2,0-.3-.1-.4,0,0-.1-.1-.2,0h0ZM12,4c0-.4-.2-.6-.4-.6,0,0-.1,0-.1.1,0,0,0,.2,0,.3,0,.2.1.3.2.4.1,0,.3.2.4.3.1.1.3.2.4.4.1.1.2.3.2.5,0,.4.1.7,0,1,0,.2-.2.4-.4.4-.2,0-.4,0-.6-.1-.2-.1-.3-.5-.4-.9,0-.1,0-.2,0-.3h.4s0,0,0,0c0,0,0,0,0,0,0,0,0,0,0,0,0,.4.2.6.4.6,0,0,0,0,.1,0,0,0,0,0,0-.2,0,0,0-.2,0-.3,0-.2-.2-.4-.3-.5-.1,0-.2-.2-.3-.3-.1,0-.2-.2-.3-.3,0,0-.2-.2-.2-.3,0-.1-.1-.3-.2-.5,0-.6,0-1,.4-1,.5-.1.8.2.9,1h0c0,0-.4.2-.4.2h0ZM12.4,2.8h.4c0,0,.6,3.7.6,3.7h-.4c0,0-.6-3.7-.6-3.7h0ZM13.2,2.7h.8c.2-.1.4,0,.5.3.1.3.3.8.4,1.5,0,.3,0,.6,0,.8,0,.2,0,.4,0,.5,0,.2,0,.3-.1.5,0,.1-.2.2-.3.2h-.8c0,.1-.5-3.7-.5-3.7h0ZM13.7,3.2l.4,2.7h.2c.1,0,.2-.1.2-.2,0-.1,0-.3,0-.5,0-.2,0-.5,0-.8,0-.5-.1-.8-.2-1,0-.2-.2-.3-.3-.3h-.3ZM15.2,2.4h.5c0,0,1,3.7,1,3.7h-.4c0,0-.2-.9-.2-.9h-.5c0,0,0,1,0,1h-.4c0,0,0-3.8,0-3.8h0ZM15.9,4.6l-.3-1.3v-.6h-.1v.6s0,1.3,0,1.3h.4ZM16.4,2.2h.8c.2-.1.4,0,.6.3.1.3.3.8.3,1.5,0,.3,0,.6,0,.7,0,.2,0,.4,0,.6,0,.2,0,.3-.1.4,0,.1-.2.2-.3.2h-.8c0,.1-.5-3.7-.5-3.7h0ZM16.8,2.7l.4,2.7h.2c.1,0,.2-.1.2-.2,0,0,0-.2,0-.4,0-.2,0-.5,0-.8,0-.5-.1-.8-.2-1,0-.2-.2-.3-.3-.3h-.3ZM19.6,1.8h.4c0,0,.6,1.8.6,1.8l.4,1.1c-.1-.6-.2-1-.2-1.3,0-.3,0-.5-.1-.8v-.8c-.1,0,.3,0,.3,0l.5,3.8h-.4s-.7-1.7-.7-1.7l-.3-1c0,.4.1.7.2,1.1,0,.3.1.6.1.8v1c.1,0-.3,0-.3,0l-.5-3.8h0ZM21.6,1.5h.6c0,0,1,3.7,1,3.7h-.5c0,0-.2-.9-.2-.9h-.5c0,0,0,1.1,0,1.1h-.4c0,0,0-3.8,0-3.8h0ZM22.3,3.8l-.3-1.3v-.6h-.1v.6s0,1.3,0,1.3h.4ZM23.9,2.6c0-.5-.1-.7-.3-.7-.2,0-.3.2-.2.7v1.3c.1.3.2.5.2.6,0,.1.1.2.2.2,0,0,.2,0,.2-.2,0-.2,0-.4,0-.7h.4c0,.2,0,.5,0,.6,0,.2,0,.4-.1.5,0,.2-.2.3-.4.3-.2,0-.3,0-.5,0-.1,0-.2-.3-.3-.5,0-.2-.1-.6-.2-.9v-.6c0-.4,0-.8,0-1,0-.3,0-.5.2-.6,0-.1.2-.2.4-.2.3,0,.4,0,.6.3.1.2.2.5.2,1h-.4ZM24.4,1.3h.4s.3,3.8.3,3.8h-.4s-.3-3.8-.3-3.8h0ZM26.7,3.5c0,.4,0,.7,0,.9,0,.2,0,.4-.2.6,0,.2-.3.2-.4.2-.3,0-.5-.1-.6-.4,0-.3-.2-.7-.2-1.2h0c0,0,0-.5,0-.5h0c0-.2,0-.2,0-.4v-.4c0-.2,0-.3,0-.5,0-.1,0-.2,0-.3,0-.2.2-.3.2-.4,0,0,.2,0,.3,0,.2,0,.4,0,.5.3,0,.2.2.4.2.6,0,.3,0,.5,0,.9v.6h0ZM25.6,2.5v1.4c0,.5.2.7.4.7.2,0,.3-.2.3-.7v-1.3c0-.2,0-.3-.1-.5,0-.2-.1-.3-.2-.3s-.2,0-.2.2c0,.1,0,.3,0,.5h0ZM26.8,1.1h.4s.5,1.8.5,1.8l.2,1.1c0-.6,0-1.1,0-1.3,0-.3,0-.5,0-.8v-.9s.4,0,.4,0v3.9c0,0-.3,0-.3,0l-.5-1.9-.2-1c0,.4,0,.7,0,1.1,0,.3,0,.6,0,.8v1s-.4,0-.4,0V1.1h0ZM29,1h.6s.5,3.8.5,3.8h-.5s0-1,0-1h-.5s-.1,1-.1,1h-.4s.6-3.9.6-3.9h0ZM29.4,3.3v-1.3c-.1,0-.2-.6-.2-.6h0v.6s-.2,1.3-.2,1.3h.4ZM30.1,1h.4v3.3h.7v.5h-1V1h0ZM50.9,12.4c-2-.3-3.8-1.5-.6-2.4,1,1.5,2.1,1.5,7.9,1,1.1,0,2.7-.3,4.1.9-.5,0-1.6-.4-2.2-.3-.9-.1-2.1.1-2.4.4-3.6-.7-6.3,0-6.9.4h0ZM50.5,7.6c2.1,0,8.4,1.7,9.7,2.1-.4,0-.5.3-1.2,0-4.4-.7-8.5-1.4-10.4.5.3-.6.8-2,2-2.7h0ZM12.3,7.7c.6.5,1.6,1.8,2.1,2.6-1.3-.7-2.4-.9-3-.9-.9,0-6.8,1-8.2.8,1.8-1.2,7.6-2.3,9.1-2.6h0ZM11,12.6c-1.9-.5-4.6.2-5,.1-.4-.2-2.9-.7-4-.6,1.1-.9,5.4.4,8.3-.6.6-.2,1.8-.9,2.1-1.1.3-.2,1.3.3,2,.8-1.2,1.4-2.6,1.3-3.5,1.4h0ZM.9,5.6c0-1.2,4-2,7.5-2.7C24,.4,35-.5,52.9,2.4c2,.6,8.6,1.9,8.9,2.9,0,.6-.2,1.8-.8,2.2-.5.3-.5,1.2-.7,1.9-1.5-.7-7.2-1.9-11.9-2.6-11.9-1.8-26.6-.9-36.7.5-3.4.5-8,2-9,2.7-.1-.9-.5-2.1-.5-2.1-.4-.9-1.2-1.2-1.2-2.3h0ZM49.7,7.4c-1.3,1.5-1.9,2.5-1.9,4.2.3.5,1.5,1.4,2.8,1.4-.5.9.1,1.7.8,2.1-.9,1.5-2.3,1.8-3.4,2.6.2,0,.5.4.9.6,1.4,0,4.2-1.9,4.3-3.7-.4,0-.9-.2-1.1-.7.8-1.8,3.5.6.5,2.8-.2.2-2.4,1.5-3.1,1.8,0,.5.7.9.9.9.4,0,.2-.5.3-.5s.4.1.5,0c0-.2,0-.5,0-.7.1,0,.4.6.7.4.3-.2-.3-.7,0-.7s.7.3.7.3c.1-.2,0-.4-.1-.6.2-.3.5.2.7.2.3-.2-.2-.5,0-.7.3.1.5.5.8.4.3-.2-.4-.9-.2-.9s.5.3.7.1c.2-.1-.6-.5-.3-.5.3.2.6.3,1.1.3.2-.2-.7-.7-.5-.8.2-.2,1,.7,1.2.5.2-.4-.8-.8-.7-1,.3-.1,1,.5,1.4.4.3-.4-1.1-.8-1-1,0-.2,1.2.6,1.5.4.3-.2-1.2-.9-1.2-1,0,0,1.5,1,1.9.6.4-.4-1.7-.8-1.4-1.1,0,0,1.7.8,2,.6.2-.4-1-.6-1.5-1.1.9-.3,2.2.8,2,1.6-.1.4-2.4,1.3-2.5,1.3-1.9,1-3,3-6.1,3.3v.7c3-.1,5.3-1.9,7.4-3,2.5-1.4,3.9-.5,4.1-1.9,0-.9-2.4-2.8-3.3-3,.7-.3,1.7-.4,2.6-.2-.2,1,.3,2.5,1.1,2.5,0-.7,1.1-1.9.7-2.8-.5-1.8-3.6-1.4-7-1.4s-4.4.5-5-.9c6.1-.3,8.9,1.7,10,0,.2-.5,0-1.1.2-1.5.6-.8,1.5-1.9,1.3-3,.1-1.5-10.5-3.7-15.2-4.3-2.2-.4-5.5-.6-6.6-.7-3.1-.2-6.3-.2-8.3-.3C23.6.1,15,.7,7.1,2.6,3.9,3.4.6,4,.5,5.2c-.6,2.4,1.6,1.8,1.5,4.6.3,2.4,7.6-.3,9.7.1-2.7,2.4-7.3.7-8.7,1.2-3.8.6-2,3.1-2,4.3.9-.2,2-1,1.6-2.8.7,0,1.6.1,2.7.5-1,.6-2.8,1.2-2.2,2.5.7.7.2-.2,7.6,3,.2,0,2.2,1.5,2.8.9,0-1.1-3.1-1.1-4.7-3.2-.9-1.8.8-3.1,1.5-2,0,.3-.4.7-.6,1.3,0,1.5,3.8,3.4,6,3.5.3-.4,1.1-1.1,1.4-1.4-1.1-.3-6.4-1.2-4.6-3.2.3-.3,1-1,.8-1.6.9-.6,2.8-1.5,1.6-3.7,0,0-.8-.8-1.2-1.6.5-.4,7.3-1.1,11.1-1.3,1,0,4.8,0,6.4-.2,2,.2,5.9,0,8.6.2,3.4.3,6.2.5,9.9,1h0ZM35.7,28.2c-.4,0-1.3.1-3.1-.5-.4-.1-1,.3-1.2.5-.2-.6-1.3-.3-1.6-.4-.3-.4-.4-.8-.4-1.2s-.7-.2-1.2,0c.4-.7.2-1.5.2-1.9-1.5-.3-.7,1-1.8.9-1-.5-1,0-1-2-.2,0-.6-.2-.7-.5-.2-.4-.8-.5-1-.3,0,0-.9-.3-1-.4h18.7v14.1c0,4.1-6.4,10.9-10.9,12.5-4.3-1.5-9.5-7.4-9.4-12.5v-13.1c.5.6.1.7.1,1.1.6.1.7.8,1.1.9.2,0,.3-.2.1-.5-.4-.5-.5-1.6-.8-2.1.7.5.8,2,1.8,3,.5,1.1.7,1.1,3.1,1.1,0,.3-.2.7,1.1.7.4.3,1.2.6,1.6,1.1.4,0,.4-.5,1.6.2-.4,1.4-1.2,1.9-1.3,2.3-.1.9-.4,1.4.9,3-.2,1.2.7,1.9,1.3,1.9-.6,1.6-.5,3.4-1.1,4.8,0,.1-.1,1.9-.4,2.2,0,5.1,2.7,5,2.1,1.4.2-.5.8-.4.9-.9.2-1.1.8-1.2,1.1-1.5,0-.2-.4-.4-.5-.4.2,0,1-.2,1.2-.2.4-.5,2.6-2,3.3-3.3.7-.5,1.5-.4,2-1,.4-.4,0-2.1.5-2.3l.2-1.2c-.4-2.2-2-2.9-2.6-2.9-.6.3-1.2,0-1.2-.6.1-1.2-1.1-.8-2.1-2h0ZM20.8,21.8h21.4v15c-.1,3.4-4.9,10-11.4,12.6-5.9-2.3-9.9-8.6-10-12.8v-14.8h0ZM16.7,18.5h29.1s.2,17.6.2,17.6c-.5,6.7-6.8,13.7-15,17.2-9.9-3.3-14.5-12.1-14.1-17.8l-.2-17h0ZM17.4,19.1h27.9v16.9c0,7.1-7.9,14.1-14.3,16.8-7.5-2.5-13.6-10-13.5-16.6,0,0,0-17.1,0-17.1h0ZM8.1,50.6c-.5.1-.8,1.6-1.5,1.7-.2.1,0-.3,0-.6-.2-.3-.9-.2-1.1-1,1.1,0,2.2-1.2,2.7-.7,0,.2,0,.4,0,.6h0ZM7.8,48.7c2.2.1,1,1.7,1.2,2.2,0,0-.3,0-.4,0,.3-.2.3-1.5-.4-1.6-.5,0-1.9.4-2.3.6-.4.2-.8.3-1.2-.1-.1,0-.1-.4,0-.6,0,.7.6.4.5.4.1-.2.2-.7,0-.7-.2,0-.4,0-.5,0-.5,0,.6-.7,1.2-.7s-.2.2-.3.4c-.1.1-.2.4.1.4s-.6.8-.3.8c.9,0,.8-.5,1.2-.7.6-.3,1.1-.4,1.1-.4h0ZM4.6,62.5c-.4.2-.8-.3-1.1-.5.4-.7.9-.9,1.3-.2v.7h-.1ZM.8,49.3c.2-.4.7-.5,1.1-.4,0,.3.2.7,0,1-.4,0-.7-.3-1-.6h0ZM34.7,64.6c.3.4,1.5,1,1.8,1.1-1.4,0-1.8-.9-2.8-1-.3,0,.7,1.2.4,1.1,0,.1-.7-.6-.5-.5-.9-1.3-1.4-1.5-2.8-1.4l.3-.6c1.9-.4,4.3,1.6,3.6,1.2h0ZM26.4,59.2c.3-.2.6-.3.5-1.4,1,.2,3,2.1,3.2,2.6-.3.2-1.1-.7-2.9-.4-.5.3-3.3,0-2.5-1.4.8-.5.5,1.5,1.7.6h0ZM28.9,63.4c-1.2-1.8-4.1-1.1-5.1-3.4-.1-.3-.3-.3-.4-.3.3,3.2,4.2,1.9,4.1,4.2-.1.5-.3,1.4-.5,1.9-.6-.6.3-3.1-.8-2.6.4,2.8-1.8,2.2-1.8,2.2,2-1.5,1-2.1-.5-3.8-.3-.5-.6-1.2-.7-2,0-1.7,1.9-3,3-1.5v.5c-.8-1.1-2.2-.8-2.4.7,0,.4.6,1.2,1.6,1.3.4.3,1.7.2,3,0,2.3.1,2,1.5,3,1.8.3,0,.6,0,.8,0,.4.4-1.5.3-1.8.3,0,1-.9,2.1-1.6,1.3.9,0,1.1-1,1.1-1.3,0-1.7-2.8-2.1-3.8-1.7,0,.2,0,.4.3.5.6.2,1.2,0,1.7.2,1.1.8,1.3,1.3.8,1.7h0ZM56.4,51.9c.9-.5,1.5-1,2.6-2.1,2.2-2.4,4.7,0,2.5,1.8-.8.5-2.6,1.3-4.5,1.2-.3,0-1.4.2-1.9,0-.4-.1-.2-.6,0-.7.2-.1.7,0,1.3-.2h0ZM48.5,58c-.5,0-1,0-1.1-.2-.4-1.5,1.3-5.1,3.6-5.7.7-.2,2.1-1.2,3.6-.2-.5,1.5,0,1.8.6,1.6.5,1.7-5.5,2.4-6.7,4.5h0ZM51.9,59c.5-.2,3.6-1.1,4.2-.8,2.7-.5,6.5,4.6-.4,4.1-1.4,0-3.8-1.9-6.2-1.8-.8-.3-.2-1.2.2-1.2l2.2-.3h0ZM40.5,63.1c-.8-.3-1.7-.3-2.2-.2-.6-.5-.4-1.9,2.3-1.9-.2.2.3,1.1.8.6,0,0,.7-.7-.1-.9,1.1-.4,7.1-3.2,7.6-1.8-.3.8-.6,2.3,1,2.2.4.5-1.7,2.1-3.1,2.4-1.4.3-3.8.3-5.5-.6.1-.2.1-.7.2-.7-.4-.4-1,0-1,.7h0ZM8,54.9c-.1.2-.4-.4-.6-1,0-.2,0-.4,0-.6,0-.2-.5-.1-.2-.5.5-.8.6-1.8,1.8-1.2.2,0,.5,0,.5-.3,0-1.6.6.2,1.5,1,.4.1.6.5,0,.6-.9.5-2.6,2-3,2h0ZM21.4,63.9c-1.2.3-5.9.7-6.2-2.2-.3-3,2.6-2.4,3.2-2.5.7,0,3.7.7,4.1.8.3.5-.1.8,1.3,2.6.3.3-2.1,1.4-2.4,1.4h0ZM16.2,58.9c-.3,0-.8.6-1.1.8-.7,0-1.9-.3-2.2-1.4,0-.2.5-.7.2-1.1-.1-.1-.6.2-.9.5,0,0-.3-.3-.6-.4-.1-.2.2-.5,0-.8-.3,0-.5.3-.7.4-.3.2-.6,0-1-.2v-.8c-.9.2-1.4,2.3-1.7-.4,1.1-1.3,3.2-2.1,4.3-3.2-.1,0,2.6-2.4,2.4-2.4.4.2.9.6.9.9,1.4.7,2.1,1.7,3.5,3.2,3,.4,2.8,1.4,5.5,2.5-1,.4-2.5.9-2.4,2.6-.5-.1-1.2-.3-1.7-.5-.1-.3-.3-1-.7-1.4-.2.2-.3.5-.2,1.1,0,.2-.3,0-.9,0-.1,0-.2-.8-.3-.8-.4,0-.4.7-.4.9-.7.3-.9.2-1.5.1,0-.4,0-.7-.5-1-.4.5-.1,1.3-.2,1.3h0ZM32.8,62.9c.3-1.1-.6-.7-1.1-1.1,1.3-.5,2.7-1.8,4.2-1.5,3.1.8.7,1.5,1.6,3.3-1.1,1.4-2.2.8-3.1,0,.2-.7-.5-1-1-.6-.3,0-.4-.2-.5-.1h0ZM28.9,55.6c-.5.5.6,1.2.7,1,.2-.1,0-.4,0-.7.7.4,2.3.5,3,.3.4,0,1.9-.5,2.2-.7,1.4.4,1.9,1.1,3.2,1.6,0,.2,0,1.9-1.1,2.8-1.9-.9-4.1.8-5.2,1.1-1.9-2.5-3.3-3.1-4.8-4.1-.6-.4-2.9-1.5-3.9-2.1-.2-.3-.3-1.1-.3-1.6-.5,0-.5.3-.4,1-.2.3-.3.2-.5-.1-.2-.2-.2,0-.4-.9-.5-.2-.5.5-.5.7-.4,0-.7,0-.9-.1-.3-.3.4-.2.5-1.1.5-.4,3.4-.5,3.9-.3,1.4,1.8,3,2.6,4.6,3.3h0ZM40,59c-.3.5-.9,1.2-1.3,1.6-.3.1-.6-.2-1.1-.6.1,0,.5-.6.6-.6,1.6-6.3,3.9-6.5,5-6.3,0,.2,0,.7.3.6.2,0,.5-.2.6-.5.2,0,.4,0,.6-.3,0-.2-.4-.3-.5-.5.1-1.9,2.9-1,1.4.6-.1.1-1.1.3-1.4,1,1.1.7.4,1.3,0,2.2-.6,1.2-2.4,2.3-4.1,2.8h0ZM12.7,59.3c1.4,1,1.7,1,1.9,1-.2.6,0,1-.2,1.5-1.2,0-2.5.5-3.7.5-3.1,0-4.6.2-5.9-1.3-1.3-1.5.8-3.2,1.5-3.1.4-1.9-5.7-3.3-4.5-6.6,1.4-3.8,6.4,3.4,5.8,7,.5.2.3-.9,1.3-.8,1.2.3,2.3-.1,3.7,1.9h0ZM29.1,55c-1.4-.4-2.4-1.1-4.5-3.4-.8-.3-1.8-.3-2.9.1-1.2-.3-1.8,0-2.5,1.3-1-1.1-2.3-2.3-3.1-2.5-.3-.7-1.1-1.3-1.2-1.1-1.1.6-1.7,1.9-3.1,2.4-.1,0-1.9-2.1-1.9-2.3,0-.7-.4-1.2-.7-1.4.7-.6.2,1.2,1.4.2.2-.9-.6-1.2-1.2-1.1-.9.1-1.4,1.1-2.4,1,0-1.2-.3-1.1-.7-1.1-.6,0-1,.9-1.4,1-.8.2-.9.5-1,1.2.2.3-.7.2-1.2,0-.1,0,0-.9-.3-1.2-1.6-.1-1.1-.5-1.1-.7-.2-.6-.6-.4-1,.2.6,1.3-.3,1.1-.4,1.8,0,0,2.3,1,.6,2,.7.8.3,1.2.3,2,.3.5,1.2.6,1.2,1.8,1,0,1.6.7,1.7,1.1.9,0,1.4.4,1.6,1-.7,1.2-1.6.4-1.5,1.2-.1.5.2.8,0,1.1.2,0-.6.6-.4.6-.3.5,1,0,.5.8.1,0-1.4.6-1.2,1.2.8.7.1,1-.6,1.2-.3.3.2.3.3.2.2,0,0,.9.9.5-.2-1.3.5-.6,1.4-.6.5,0,.2-2,1.5-.4,0,0,.5.2.7-.2.4,0,1.1,0,1.7.1.3.6.5.3.6.4.1,0,.4,0,.4-.4.4,0,1.4.1,1.8,0,.2.3.5.3.6.3.3-1.3,3.2-1.3,3.4.7,1,.2,1.6.8,2.3,1.1.8-.2,1.8-.5,2.4.1.5-.5,1.4-1,2.1-.7.7-.8,1.8-1,2.1-1.1,1.5,1.2-2.3,1.9-.9,3.3.7-1.2,1.9-.3,2.9-1.1.4.7.8,1.1,1.4.9-.2-1,.1-1.3.5-2,1.2.8,2.6,1.2,3.7,1.2,0-.3-.6-.8-.5-1,1.7.2,1.8,2.3,3.6,1.9l-.3-.7c.5,0,.8.6,1.6.6.9,0,1.7-.1,2.1-.7-.6,0-1.3-.3-1.8-.8,2.9-2,.2-1.6,4.3-1.2,1.4.5,3,.8,4.5.8,1.7,0,2.5-.7,4-1.2.2-.7,1.1-1,1-1.7.6-.4,1.2-.3,1.5.1,1.5,0,.7.8,1.4,1,.9-.6,1.2.5,1.6.4,1.8-.8,1.7.4,1.9.2.8-.7,2.1-.7,2.3-.5.2-.4.5-.7.8-.7.1-.4,0-.9.3-1.4,1.1-.9-.2-.6-.2-1.1-.2-.7-.6-.8-.8-1.1,0-.4,0-1.1-.9-.5-.4-.4-2-1-5.8.2-2.5.8-3.7,0-2.6-.6.8-.5,3.4-1.4,4-1.8,0,0,1.8-1.1,2.3-2.4,1.6,0,3.4-.2,4.2-.4,1.3-.4,3.5-1.7,2.3-4.1.3-.2.7,0,.8-.6v-.4c.1,0-.4-.6-.4-.6.3-1,.9-.2,1-.7.2-.5-.4-.4-.7-.5-.3,0-.7-.8-1,0,.1.1.4.4.4.7-.4,0-2.2-.9-1.7,1.3-.5,0-1.6.6-2.1,1-.3,0,0-.6-.7-.7-.8-.2-1.1.7-1.6-.7l-.9.5c0,0,0,.5,0,.4.7-.3.7.2.7.2-.1.2-.4.5-.4.8-.1.4.3.7,1.4.7,0,.3-1.1,1.2-2,1.2s-1.8-.8-2.7-.7c-1.2.3-2.8.6-3.7,1.3-.7,1.1-1.6,1.5-1.6,2,0,.5-.6,1.5-.9,1.5,0,1.8,0,2.9-1,2.3-.2.4-.6.6-1.2.5-.4.3-.8.5-1.3.3-.7.7-1.4,1.1-2.1.9-.5.6-1,.8-1.5.7,0-.3.7-.9,1.4-1.3.4-.1,1.4-.2,2.2-.8.7-1.3,1.2-1.7,1.8-1.9,0-.6.2-1.6,0-2.2.3-.5.7-.9,1.2-.9,0-.7.5-1.4.5-1.9-.5,0-1.1-.7-1.6-.9-.3.2-.9.4-1.2.5-.4.1-.4,1.3-1,1.4-3.3-.5-4.6,3.2-4.9,3.7-.9.2-2.9-1.4-3.8-1.2-1,0-1.9.8-2.9.8-1.1,0-2.2-.7-2.4-.7h0ZM47.6,28.7c-.2,0-.4-.1-.8,0-.1.3-.2,1.7-.1,2,.3,0,1-1.4.9-1.9h0ZM47.5,46.3c0,.3.2,1.5.5,1.6.2-1.2-.2-2-.5-1.6h0ZM48.9,46c-1.7-.6.7,2.7-1.4,1.9-.3-1.7-.6-2.3-1.1-1.1.1.5.4,1.3.4,1.8.9.6,1.7.6,2.4,0,.2-.6.2-2.6-.3-2.6h0ZM59.1,51.1c.2,0,.4,0,.5-.3.3-.4-.2-.5-.5-.4-.5.4,0,.6,0,.7h0ZM60.3,51.6c.2,0,.4,0,.5-.2,0-.4-.3-.2-.3-.3-.5.2-.1.3-.2.5h0ZM60.1,50.1c.3,0,.4,0,.5-.3-.2-.2-.4-.2-.4-.3-.5.2,0,.4,0,.5h0ZM61.3,50.2c.2,0,.4,0,.5-.3,0-.4-.3-.3-.4-.3-.5.4-.1.5,0,.5h0ZM57.7,48.9c.5,0,.4.4.7.7-.4.2-.7,0-1.4,0,0-.4.5-.7.7-.7h0ZM61.8,47.3c.5,0,.9.4,1.2.7-.2.4-.6.3-1,.4-.5,0-.5-1-.3-1h0ZM52.2,59.4c-.3,0-1,0-.8.6.3,0,.8-.2.8-.6h0ZM53.8,59.8c-.3,0-1.3-.2-.8.8.4,0,1.2-.4.8-.8h0ZM55.6,60.7c.3-.3-.7-.7-.8-.2.1.1.6.5.8.2h0ZM55.1,59.2c.2,0,1,0,.5-.7-.2,0-.9-.1-.5.7h0ZM56.6,60.3c.2,0,.7-.2.6-.7-.4,0-1.2,0-.6.7h0ZM57.7,61.8c.3,0,1.3-.3,1-.8-.5-.4-1.4.3-1,.8h0ZM48.8,54.4c0,.5.9.4.8-.4-.2,0-.7-.2-.8.4h0ZM52.7,52.4c-.2,0-.6.2-.4.4.2.3.5.3.8,0,.1-.3-.2-.6-.4-.5h0ZM53.3,54.4c.3,0,.4,0,.4-.3.3-.3-.2-.6-.5-.6-.5.4,0,.9,0,.9h0ZM50.9,52.7c0,.4,1,.4.9-.2-.2-.4-.8-.3-.9.2h0ZM51.7,54c.2-.1.4-.5.3-.6-.2,0-.6-.2-.7.2,0,.3.1.4.4.4h0ZM52.3,54.6c-.1,0-.7,0-.6.5.3.3.6.2.7,0,.2-.2,0-.4,0-.4h0ZM50.2,55.6c.3-.2.4-.5.2-.8-.2,0-.8,0-.8.5.2.2.2.4.6.2h0ZM48.7,56.1c-.1,0-.4.1-.3.5.4.3.5.2.6,0,.2-.3,0-.5-.3-.5h0ZM22.3,58.7c.8-.3-.3-1.9-.7-1.4-.3.4.2,1.3.7,1.4h0ZM29.9,57.9c-.5,0,0,.5,0,.7.2.2.4.3.6.3.4-.5-.3-1-.6-.9h0ZM31.7,57.7c-.1-.3-.7-1.2-.8-.3,0,.5,1,1.5,1.1,1,0-.2-.2-.8-.3-.8h0ZM34.1,61.1c.3.3.9.2,1.1-.4,0-.2-1.4-.4-1.1.4h0ZM35.3,62.5c.3.3.7.4.9-.2,0-.5-1.1-.8-.9.2h0ZM39.5,58.1c-.2,0-.6.3-.6.7.5.2.7.1.8-.1,0-.3,0-.4-.2-.6h0ZM39.5,56.8c.2.2.6.2.6,0,.5-.8-.3-.7-.6-.6,0,.3-.2.4,0,.6h0ZM41.1,56.5c.2.2.5.2.6,0,.5-.8-.2-.6-.6-.5,0,.3-.2.3,0,.5h0ZM41.6,57.6c.2,0,.3,0,.4,0,.3-.7-.2-.5-.4-.5-.1.2,0,.4,0,.5h0ZM43.1,56.3c.2,0,.5,0,.6,0,.5-.8-.3-.6-.7-.6-.1.3,0,.4,0,.5h0ZM42.2,55.1c.2.2.4.1.5,0,.5-.8,0-.7-.4-.6,0,.3-.2.4,0,.6h0ZM41.5,53.8c.2.6.9,0,.7-.2-.4-.3-.7,0-.7.2h0ZM45,51.9c.2.6.7,0,.5-.2-.4-.2-.5,0-.5.2h0ZM29.8,64.6c.4.4,1.2.6,1.3.4-.4-.1-.5-.4-.6-.5-.2,0-.5.1-.7.1h0ZM21.9,61.8c.5,0,.1-.5.3-.5-.1-.1-.9-.2-1,.3,0,.1.3.2.8.2h0ZM19.3,61.3c-.2,0-.5,0-.6.5.3.3.7.3.9.3.6-.3-.2-.8-.3-.8h0ZM17.4,60.1c-.8-.1-.8.6-.2.7.3.2.5-.7.2-.7h0ZM17.6,62.2c-.4-.1-.8.3-.8.5.5.8,1.4,0,.8-.5h0ZM20.1,63.3c-.3-.8-.7-.7-.9,0,.3.3.9.3.9,0h0ZM32.3,57.8c.2.5.4.4.6.2,0-.4-.6-1.3-.9-1.1,0,.2.2.9.3.9h0ZM34,56.9c-.1-.3-.3-.4-.6-.3-.1.7.3,1.3.7,1.2.4,0,.2-.6,0-.9h0ZM34.6,56.4c-.5.2,0,1.1.5.8,0-.3-.1-.8-.5-.8h0ZM34.6,58.6c-.3.3.3.4.3.6.2.2,0,.2.4.2,0-.8-.5-1-.6-.8h0ZM36.2,58.6c-.2-.5-.5-.8-.8-.5-.2.7.7,1.4,1.1,1.1.2,0,0-.6-.3-.5h0ZM36.3,56.8c-.5,0-.2.4-.2.7.4.4.5,1.1,1,.9.4-.2-.6-1.3-.8-1.6h0ZM26.9,56.7c.4.3.5.2.5,0-.3-.3-.6-.6-.9-.4-.1,0,0,.6.4.5h0ZM27.6,56.4c.3.2.6.4.9.4.3-.2-.7-1.4-1-.9,0,.2,0,.4.2.5h0ZM24.2,54.4l-.3-.8c-.3,0-.5,0-.4.3,0,.7.2,1,.5,1,.1,0,.2-.3.2-.5h0ZM25.1,53.6c-.2-.1-.3,0-.4.3,0,.5.6,1.2.8.8.2-.3-.3-.8-.4-1.1h0ZM17.1,53.5c-.6-.3-.7.5-.3.8,0,.7.6.9.8.4,0-.3-.3-1-.5-1.3h0ZM14.1,58c-.1.3-.2.7-.2,1.1.2.2.5.1.7-.2.4-.8.2-1.8-.5-1h0ZM10.7,54.4c-.2-.2-1.1,0-1,.5.4.3,1.1-.4,1-.5h0ZM11.8,54.8c-.2-.2-1,.4-.9.9.4.4,1.1-.7.9-.9h0ZM12.3,56.3c.4,0,.9-.7.6-1-.4,0-.8.5-.6,1h0ZM14.2,55.5c-.3-.2-.9,1.1-.2,1.3.4-.3.5-1.4.2-1.3h0ZM15.9,56c-.3-.7-.8-.8-.7-.1,0,1.6.9,2,.7.1h0ZM17.5,56.1c-.3-.6-.5-.6-.5,0-.2,1.4.8,1.3.5,0h0ZM18.5,56.9c.2.2.4.3.6.2,0-1.2-.7-1.8-.9-1.2,0,.5.2.8.2,1h0ZM21,56.6c-.3-.2-.5-.9-1.2-1-.1,1.2,1.3,2,1.2,1h0ZM22.4,56.1c-.3-.5-.6-.9-.9-.9-.3-.2-.5.2-.5.3.5.6,1.1,1.9,1.7,1.2.1-.4-.2-.5-.3-.5h0ZM18.5,54.1c-.3-1.3-.8-.6-.7-.5.4,1.2.8,1.6,1,1l-.2-.5h0ZM16.1,54.5c.2-1-.4-1.4-.7-1.1.1.7.2,2,.7,1.1h0ZM14.8,53.7c-.1-.7-.6-.9-.6,0-.2.3-.6.4-.4.8.6.3.8-.4,1-.9h0ZM13.8,53c-.2,0-1.5.5-1,1,.5.2,1.6-.8,1-1h0ZM11.7,53.4c-.2.3,0,.4.2.5.7-.3,1.3-.9.8-1.2-.3,0-.8.6-1,.7h0ZM10.3,57.9c-.1,0-.5,0-.5.5.3.2.4.3.7.1,0-.3,0-.6-.2-.6h0ZM10.3,61h-1c-.1.1.4.8.8.6,0,0,.4-.6.2-.6h0ZM12.9,60.3c-.3,0-.7-.3-1,0,0,.1,0,.5.9.6.1-.1.2-.6.1-.6h0ZM8.1,60.6c-.1,0-.5,0-.5.6.3.2.5.3.8,0,0-.3-.1-.6-.3-.6h0ZM8.8,59.1c-.2-.3-.6-.2-.8,0,0,1.4,1.2,0,.8,0h0ZM6.1,58.8c-.4,0-.5.2-.5.3.2.3.2.4-.1.6-.3.2.7,1.4,1.1,1.3.4-.3,0-.8-.2-1.1l.2-.5c0-.2-.1-.4-.4-.5h0ZM2.9,51.9c-.5-.1-.6,0-.4.3.4.3.7-.3.4-.3h0ZM3.2,53.5c-.3,0-.2.3-.2.5.2.1.4,0,.4,0,.1,0,0-.4-.2-.4h0ZM3.8,51c-.4,0-.3.3-.3.5.3.1.5,0,.6,0,.2,0,0-.5-.4-.5h0ZM4.7,53.2c-.3,0-.2.3-.2.4.2,0,.4,0,.4,0,.1,0,0-.4-.2-.4h0ZM4.9,54.6c-.3.2,0,.5,0,.7.3,0,.4,0,.5-.2.2,0-.2-.7-.5-.5h0ZM6.5,54.9c-.3,0-.2.3-.2.4.2,0,.4,0,.4,0,.2,0,0-.4-.2-.4h0ZM10.2,52.9c.5.2.2-.8-.2-1.2-.7.2,0,1.1.2,1.2h0ZM9,53c.3.3.5-.8,0-1.2-.8.2-.3,1.1,0,1.2h0ZM7.7,52.9c.4.4,1.2-.8.6-1.1-.3,0-.8,1-.6,1.1h0ZM43.7,60.2c-.3,0-.6.4-.3.6.2,0,.9,0,.9-.7h-.6ZM44.2,61.6c-.2.1-.4.2,0,.4.2-.1.4,0,.5-.3-.2,0-.4-.2-.5-.1h0ZM45.1,62.8c-.2,0-.7,0-.6.6.3.2.8,0,1.1-.2,0-.2-.4-.3-.5-.3h0ZM47.1,61.6c-.2.1-.6.4-.3.7.4.1.9-.4.8-.5,0-.2-.3-.2-.6-.2h0ZM46.2,59.8c-.3.1-.6.4-.1.6.3,0,.6,0,.6-.6-.2,0-.4,0-.5,0h0ZM3.1,47.6c0,.4,0,1.1.2,1,.2,0,.4-.2.5-.5.4,0,.6,0,.7-.2-.2-1,.2-.5,1.1-.8,0-.3.4-.6,0-.9-.5,0-.4.3-.9.5-.9,0-1.5.4-1.6.8h0ZM17.5,47.6h.4c0,0,0-1.1,0-1.1-.5-.2-.4.1-.4,1.1h0ZM19.2,47.7c0-1.5-.1-1.6-.8-1.6-.2,2.8-1.6,2.2-1.2,0-.2-.5-.7.2-.7.2-1.1,3.3,2.8,3.7,2.7,1.5h0ZM21.7,48.2c0-.8-.2-.5-.6-.5,0,.5,0,.4-.2.5,0,0-.1-1-.2-1s-.3,1.1-.3.9c-.1-.3-.1-.7,0-1.2-.1-.4-.5,0-.5,0-.8,2.6,2.1,3,2.1,1.3h0ZM14.4,47.2c0,.7.4-.3.4-.7h-.4v.7h0ZM16.1,46.3c0-.7-.5-.4-.8-.4,0,2.8-1.8,2.1-1.2-.5-.4-.3-.7-.2-.9.3,0,.9-.3,1.7,0,2.2.5.8,2,1,2.6.4.3-.3.4-1.1.4-2h0ZM13.9,44.7c.3,0,.9.2.7-.7-.2,0-.8-.2-.7.7h0ZM16,44.2c-.1,0-.5,0-.4.7.2,0,.4,0,.6,0,.3-.2,0-.7-.2-.7h0ZM17.4,45.2c.3,0,.5-.1.6-.2,0-.4-.3-.8-.7-.2,0,.2,0,.4.2.5h0ZM19.4,44.7c-.3-.4-.4.2-.4.4.3.2.4.2.6,0,0-.2,0-.4-.2-.4h0ZM14.6,42.5l3.4.7c0-.3,0-.7,0-1.1-.3-.3-.6-.3-.8,0-.3-.4-.7-1-1.4,0-.1-.3-.1-.7-.2-.9-.2-.2-.8-.2-1,0-.2.2,0,.9,0,1.4h0ZM14.6,43.4c1.3.2,2.7.6,3.9.7v-.6c-.6-.1-3.2-.8-3.8-.6-.3.1,0,.6-.1.5h0ZM51,40.8c0-.1-1-.7-.9-.9.1-.1,1,.7,1.1.7l-.2.3h0ZM50.4,41.7c-.5,2,.6,3.8,2.4,3.6-.7-.9-1.2-2-.3-3.3.8-.6,2,.2,2.5.7.5-1-.2-1.6-1.1-1.8.2-.3,1.2-.1,1.8-.1-.4-.8-1.4-1.7-3.6-.8-1-.5-2.1-1.4-2.9-1.8-.6.3-1.4.3-1.8,0l3,3.4h0ZM16.6,28c-.6-.4-.5-.2-.9,0,0,.5.2,1.6.4,1.6.4-.2.4-1.2.6-1.6h0ZM15.6,24.4c-.2,0-.6-.2-.6.4,0,.6.9.4,1.1.3.3-.5,0-.5-.4-.6h0ZM14.9,23.9c.5.5,1.8.4,1.4-.2-.3,0-1.4-.5-1.4.2h0ZM15.3,23.1v-.6c.4-.3.8-.4,1.3-.3,0,.2,0,.4,0,.6-.4.3-.8.4-1.3.3h0ZM15.7,29.8c.6,2.6,1.5,4.4.5,6.7-.5.8-1.3.9-1.9,1-.8-.2-1.6-.7-1.4-2,0-.2.7-.9,1.1-.7.3,0,.6.3.8.7,1.5-2.8-1.8-5.5-1-12.7.4-1.9,1.4-3.7,2.6-3.7v1.1c-1.6,1.1-2.6,4.8-.7,9.6h0ZM45,46.5c-.3-.2-.6,0-.5.2,0,.5.3,1,.5,1,.1-.3,0-.9,0-1.1h0ZM46.1,46.6c-.3-.5-.6-.5-.9,0,.4,1.7-.9,1.6-.9,0,0-.4-.8,0-.9,0,0,.5.5,1.5.5,1.9.4.8,3.6,1.4,2.3-2h0ZM42.9,48.5c0-.5-.2-1.6-.2-2.1-.4-.3-1.1-.2-1,.3,0,.5,0,1.3,0,1.7-.3-1.2-.3-.9-.4-.5,0,.2-.1.5-.1.7-.5-2-1.9-.4-1,.7.8.3,3.2.3,2.9-.9h0ZM47.1,44.7c0,.2.3.8.4.8,0-1.2-.2-1.3-.4-.8h0ZM47.9,43.3c-.4-.3-1.6.1-1.6.5-.3,1.4,0,2.3.7,1.5,0-.2,0-.6,0-.8s0-.4.3-.6c.5.8.6,1.9,1.2.9-.1-.7-.3-1.1-.5-1.4h0ZM44.6,44.4c-.3,1.3-.2,1.2.4,1.1,0-.4-.1-1.1-.4-1.1h0ZM44.7,44c.4-.2.4,1.1.6,1.6.4,0,1-.5.4-1.9-.5-.7-2-.5-2.1,0-.1.5-.3,1.3,0,1.8,1.2.7.2-1.4,1.2-1.6h0ZM45.7,41.5c.2-.1-.2-.6-.2-.4-.2,0-.9-.4-.5.6.3,0,.5,0,.7-.2h0ZM46.5,39.7c0,0-.4,0-.5,0-.1,0-.4-.5-.4-.5-.6,2.2,1.6,1.4,2,1.1,0-.6-.4-1.9-.7-2.7-.2,0-.5,1.8-.5,2h0ZM47.6,40.9c-.1,0-.5,0-.3.6.2,0,.5,0,.7-.2,0-.2-.2-.4-.4-.4h0ZM46.3,40.9c-.2,0-.4.2-.3.7.3.1.5.1.7-.2,0-.2,0-.4-.4-.5h0ZM47.9,42.9c.3-.2.3-.5,0-1-.5,0-2.4.2-3.1,0-.2.2-.6.3-.2,1,.6.1,3,0,3.3-.1h0ZM38,30.3s0,0,0,0h0c0,0,0,0,0,0,0,0,0,0,0,0h0s0,0,0,0h0c0,0,0,0,0,0,0,0,0,0,0,0h0s0,0,0,0h0s0,0,0,0h0s0,0,0,0h0s0,0,0,0h0s0,0,0,0h0s0,0,0,0h0s0,0,0,0c0,0,0,0,0,0,0,0,.2,0,.2,0h0s0,0,.1,0h0s0,0,0,0c0,0,0,0,0,0h0s0,0,0,0c0,0,0,0,0,0h0v-.2h0v-.2h0c0,0,0,0,0,0h0s0,0,0,0h0c0,0,0,0,0,0h0s0,0,0,0h0s0,0,0,0h0c0,0-.1,0-.1-.1h0s-.3,0-.3,0h0s0,0,0,0h0s0,0,0,0h0c0,0,0,0,0,0h0s0,0,0,0h0s0,0,0,0h0s0,0,0,0h0s0,0,0,0c0,0,0,0,0,0h0s0,0,0,0h0s0,0,0,0h0c0,0,0,0,0,0h0ZM29.3,49.3h0s0,0,0,0c0,0,0,0-.2,0,0,0-.1,0-.1,0,0,0-.1,0-.2,0,0,0-.3.1-.5.3h-.1c-.6.4-.9.6-1,.7,0,0,0,0,0,0-.1.1-.3.1-.4,0,0,0-.1-.1-.2-.2,0,0,0-.1,0-.2,0,0,0-.3,0-.4,0-.2,0-.4.2-.8,0-.1,0-.3,0-.4,0-.3.1-.4,0-.5,0,0,0,0,0-.1h0s0,0,0,0c0,0,0,0,0,0,0,0,.1,0,.3,0,.1,0,.3.1.5.3.2.2.4.3.5.4,0,0,0,.2,0,.2,0,0,0,0,0,0,0,0,0,0,0,0,0,0,0,0,0,0,0,0-.1,0-.1,0,0,0,0,0,0,.2,0,0,.2.2.3.2.1,0,.2.2.3.2,0,0,.1,0,.1,0s0,0,0,0c0,0,0,0,0,0,0,0,0,0,0,0s0,0,0,0c0,0,.1,0,.2,0,.1,0,.2,0,.4.2.2,0,.3.2.3.3,0,0,0,.1,0,.2h0ZM27.9,49.4l-.5-.3c0,.2,0,.3,0,.4,0,0,0,.1,0,.2,0,0,0,0,.1,0,0,0,.2,0,.4-.2h0ZM31,50.8c0-.1,0-.2,0-.3,0,0,0-.2,0-.2s0,0,0,0c0,0,0,0,0,0,0,0-.1-.2-.1-.2,0,0,0-.1.2-.1,0,0,.2,0,.5,0,.2,0,.4.1.5.2,0,0,.1.1.1.2,0,0,0,.1-.2.1,0,0,0,0,0,0,0,0,0,0-.1.2,0,.1,0,.3,0,.6h0c0,.4,0,.5,0,.6s0,.1,0,.2c0,0,0,0,0,0,0,0,0,.1,0,.2,0,0,0,0-.1,0,0,0-.2,0-.3,0,0,0,0,0-.2,0s-.1,0-.2,0c0,0-.2,0-.4,0-.1,0-.3,0-.3,0-.3,0-.5-.2-.7-.3-.1-.1-.2-.3-.2-.5s0-.2,0-.2c0,0,.1-.1.2-.2,0,0,0,0,0,0,0,0,.1,0,.1,0,0,0,0,0-.1,0,0,0-.1,0-.1,0,0,0-.1-.2-.2-.2,0-.1,0-.2,0-.3s0,0,0,0c0,0,0-.2,0-.2,0,0,0,0,0,0,0,0-.2-.1-.2-.2,0,0,0-.2.2-.2,0,0,.3,0,.4,0,.1,0,.2,0,.3,0,0,0,.1,0,.2.2,0,0,.1.2.2.5h0c0,.4.1.5.3.5h0s0,0,0,0h0ZM30.9,51.1s0,0,0,0h0c0,0-.2,0-.2,0,0,0,0,.1,0,.2,0,0,0,.2,0,.2,0,0,0,0,.2,0,0,0,0,0,0,0,0,0,0-.1,0-.2s0,0,0-.2h0c0-.1,0-.1,0-.2h0ZM35.9,47.4h0s0,0,0,0c0,0,0,0-.1.1,0,0-.1.1-.1.1,0,0,0,.1,0,.2,0,0,0,.3,0,.5h0c0,.4,0,.7,0,.9,0,.2,0,.4,0,.4,0,0,0,0,0,0,0,.2,0,.3-.3.4,0,0-.2,0-.3,0s-.2,0-.3,0c-.1,0-.2,0-.4-.2,0,0-.2-.1-.3-.2,0,0-.3-.2-.4-.3,0,0-.2-.1-.3-.3-.2-.1-.3-.3-.4-.3,0,0,0,0,0,0h0s0,0,0,0c0,0,0,0,0,0,0,0,0-.2.1-.3,0,0,.3-.2.5-.3.3-.1.5-.3.6-.3.1,0,.3,0,.3,0,0,0,0,0,0,0,0,0,0,0,0,.1,0,0,0,0,0,0,0,0,0,0,0,.1,0,0,0,0,.2,0,0,0,.2,0,.5-.2.2,0,.3-.2.3-.2,0,0,0,0,0-.1s0,0,0,0,0,0,0,0c0,0-.1,0-.1,0,0,0,0,0,0,0,0,0,0-.1,0-.2,0,0,.2-.2.4-.3.2-.1.4-.2.5-.2.1,0,.2,0,.2,0h0ZM34.9,48.8c-.2,0-.4.2-.6.3.1,0,.2.1.3.2,0,0,.2,0,.2,0,0,0,0,0,0-.2,0,0,0-.2,0-.4h0ZM40.3,45.1c-.1,0-.3-.2-.4-.3,0,0,0,0,0,0,0,0,0,0,0,0,0,0,0,.2,0,.2,0,0,0,.2.1.2,0,0,.2,0,.3,0,0,0,.1,0,.2-.2,0,0,0,0,0,0,0,0,0,0,0,0h0,0ZM39.5,44.6c0,0-.2,0-.2-.1,0,0,0,0-.1,0,0,0-.1,0-.1,0,0,0,0,0,0,0,0,0,0,.1,0,.2,0,0,0,.1.1.2,0,0,.1,0,.2,0,0,0,.2,0,.2-.2,0,0,0,0,0,0,0,0,0,0,0,0h0ZM38.4,44.5c.1-.2.3-.4.5-.6.1-.2.4-.4.5-.6,0,0,.1-.2.1-.2,0,0,.1,0,.2,0s0,0,0,0c0,0,0,0,0,0,0,0,0,0,0,0,0,0,0,0,0,0,0,0,.1.1.2.2.1,0,.3.2.5.3,0,0,.1.1.2.2.1,0,.2.1.3.1,0,0,.1,0,.1,0,0,0,0,0,0,0,0,0,.2,0,.2,0,0,0,0,0,0,.1,0,0,0,.2-.1.3,0,0,0,.1-.2.2,0,0-.1.2-.2.2,0,0-.2.2-.3.3-.1.1-.2.2-.2.3-.2.2-.4.4-.6.5-.2,0-.4,0-.5,0,0,0,0-.1-.1-.2,0,0,0-.1,0-.2s0,0,0,0c0,0,0,0,0,0,0,0,0,0-.1,0,0,0,0,0,0,0,0,0-.2,0-.3,0,0,0-.2,0-.3,0-.1-.1-.2-.3-.2-.5,0-.2,0-.4.3-.6h0ZM41.9,40h0s0,0,0,0c0,0,0,0,0,.2,0,0,0,.1,0,.2,0,0,0,.1,0,.2,0,0,.1.2.3.4,0,0,0,0,0,0,.2.3.3.5.4.7,0,.2.2.3.2.3,0,0,0,0,0,0,.1.1.2.3,0,.4,0,.1-.1.2-.2.2,0,0-.1.1-.2.1,0,0-.2,0-.4,0s-.2,0-.4,0c-.1,0-.3,0-.5,0-.1,0-.3,0-.5,0-.3,0-.5,0-.6,0,0,0,0,0,0,0t0,0s0,0,0,0c0,0,0,0-.1,0,0,0-.1-.2,0-.3,0-.1.2-.4.3-.6.2-.3.4-.5.4-.6.1,0,.2,0,.3,0,0,0,0,0,0,0h0c0,.2,0,.3,0,.3,0,0,0,0,.2,0,0,0,.2-.2.3-.4,0-.1.1-.3.2-.3,0,0,0-.1,0-.1,0,0,0,0,0,0s0,0-.1,0c0,0,0,0,0,0,0,0,0,0-.1,0,0,0,0-.1,0-.2,0,0,0-.3.2-.4.1-.1.2-.3.3-.3,0,0,.1,0,.2,0h0ZM41.9,41.5c0,.2-.2.4-.3.5.2,0,.3,0,.4,0s.2,0,.2,0c0,0,0,0,0-.2,0,0,0-.2-.2-.4h0ZM42.9,31.8h0s0,0,0,0c0,0,0,.1,0,.2,0,0,0,.2,0,.2,0,0,.1,0,.2.2,0,0,.3.2.5.3,0,0,0,0,.1,0,.3.2.5.3.6.4.1,0,.3.1.3.1,0,0,0,0,0,0,.1,0,.2.2.2.4s0,.2,0,.3c0,0,0,.1,0,.2,0,0-.2.2-.3.3,0,0-.1.1-.2.2-.1,0-.3.2-.5.3,0,0-.2.2-.4.3-.3.2-.4.2-.5.3,0,0,0,0,0,.2h0c0,0,0,.1,0,.1,0,0,0,0-.1,0,0,0-.2,0-.2-.2,0-.1,0-.4,0-.8s0-.7,0-.8c0-.2.1-.2.2-.2s0,0,0,0c0,0,0,0,0,0h0c0,.1,0,.2.1.2s0,0,0-.2c0,0,0-.3,0-.5s0-.3,0-.4c0,0,0,0-.1,0,0,0,0,0,0,0,0,0,0,0,0,0,0,0,0,.1,0,.1,0,0,0,0-.1,0,0,0-.1,0-.2-.2,0-.1,0-.3,0-.6s0-.5,0-.5c0,0,0-.2.2-.1h0ZM43.8,33.3c0,.2,0,.5,0,.7.1,0,.3-.2.4-.2,0,0,.1,0,.1-.1s0,0,0-.1c0,0-.2,0-.4-.2h0ZM43.4,29l1,1.2s0,0,0,0c0,0,0,0,0,0,0,0,0,0,0,0,0,0,0,0,0-.2s0-.2,0-.3c0,0,0-.1,0-.2,0,0,0,0,0,0-.1,0-.2-.2-.2-.3s0-.2,0-.2c0,0,.1,0,.2,0,0,0,.2,0,.2.1,0,0,.2.1.2.2,0,0,0,.1.1.2,0,0,0,0,0,.2s0,0,0,.1c0,0,0,0,0,0v1.6c0,.2,0,.2,0,.3,0,0,0,0-.1,0,0,0-.3-.2-.6-.6-.1-.2-.2-.3-.3-.4l-.7-.8s0,0,0,0c0,0,0,0,0,0,0,0,0,0,0,0v.2c0,0,0,.2,0,.3,0,0,0,.1,0,.2,0,0,0,0,0,0,0,.1.2.2.2.3s0,.1,0,.2c0,0-.1,0-.2,0-.2,0-.3-.1-.4-.3-.1-.1-.2-.3-.2-.4s0,0,0-.1c0,0,0-.1,0-.2v-1.6c0-.1,0-.3,0-.3,0,0,0,0,.2,0,0,0,.2.2.5.6h0ZM18.7,34.4h.2c0,0,.2,0,.2,0,0,0,0,0,0,0,0-.1,0-.2-.1-.2,0,0-.2,0-.3,0s-.2,0-.3,0c0,0-.1.1-.1.2s0,0,0,0c0,0,.1,0,.3,0h0ZM19.5,34.3h0s0,0,0,0c.1,0,.2,0,.2,0,0,0,0,0,0,0,0,0,0,0,0,0,0,0,0-.1.2-.1s.2,0,.2.2c0,.1,0,.3,0,.5s0,.4,0,.6c0,.1-.1.2-.2.2s-.1,0-.2,0c0,0,0-.1,0-.1,0,0-.1,0-.3,0-.2,0-.6,0-1.1,0s-.2,0-.2,0c0,0,0,0,0,0,0,0,0,0,0,0,0,0,0,.1-.2.1,0,0,0,0-.1,0,0,0,0-.2,0-.3v-.2c0,0,0,0,0-.1s0-.2,0-.4c0-.2,0-.3,0-.4,0-.4,0-.6.2-.8.1-.2.3-.3.6-.3s.5,0,.7.3c.2.2.2.5.2.8h0c0,.2,0,.2,0,.2h0ZM19.3,30.2h.6s0,0,0,0c0,0,0,0,0,0,0,0,.1-.1.2-.1s.1,0,.2.1c0,.1,0,.3,0,.5s0,.4,0,.5c0,.1-.1.2-.2.2s-.1,0-.2-.1c0,0,0,0,0,0,0,0,0,0-.3,0-.2,0-.4,0-.7,0h-.1c-.3,0-.5,0-.6,0,0,0-.1,0-.1,0,0,0,0,0,0,0,0,0-.1.1-.2.1s-.1,0-.2-.1c0,0,0-.2,0-.3,0,0,0,0,0-.2v-.2c0,0,0-.2,0-.4s0-.3,0-.3c0-.3,0-.5.2-.7.1-.1.3-.3.5-.3s.2,0,.3,0c0,0,.1.1.2.2,0,0,0,0,0,0,0,0,0,0,0,0s0,0,0-.1c0,0,0-.1,0-.1,0,0,.1-.2.2-.2,0,0,.2,0,.3,0h0c.1,0,.2,0,.2,0,0,0,0,0,0,0,0-.1.1-.2.2-.2s.2,0,.2.2c0,0,0,.3,0,.5s0,.2,0,.3c0,0,0,.2,0,.2,0,0-.2.2-.5.2h0s0,0,0,0c-.3,0-.5.2-.5.3h0c0,0,0,0,0,0h0ZM18.8,30.2s0,0,0,0h0c0-.1,0-.2,0-.2,0,0-.1,0-.3,0s-.2,0-.2,0c0,0,0,.1,0,.2s0,0,0,0c0,0,.1,0,.2,0h.4ZM42.7,24.8h0s0,0,.1,0c0,0,0,0,0,.2,0,0,0,0,0,.1,0,0,0,0,.2,0,0,0,.2.1.5.2h.1c.6.3.9.5,1,.5,0,0,0,0,0,0,.2,0,.3.1.3.3s0,.2,0,.3c0,0,0,.1,0,.2,0,0-.2.2-.3.2-.2,0-.4.2-.8.4,0,0-.2,0-.4.2-.3,0-.4.2-.5.2,0,0,0,0,0,0,0,0,0,0,0,0,0,0,0,0,0,0,0,0,0,0,0,0,0,0-.2,0-.2-.2,0-.1,0-.3,0-.6s0-.5,0-.6c0-.1,0-.2.2-.2s0,0,0,0c0,0,0,0,0,0,0,0,0,0,0,0,0,0,0,0,0,0s0,0,0-.1c0,0,0-.2,0-.4s0-.3,0-.3c0,0,0,0,0,0s0,0,0,0c0,0,0,0,0,0,0,0,0,0,0,.1,0,0,0,0,0,0s-.1,0-.2-.1c0,0,0-.2,0-.4s0-.3,0-.4c0,0,0-.1.2-.1h0ZM43.6,25.9v.6c.2,0,.3-.1.4-.2,0,0,.1,0,.1,0,0,0,0,0-.1-.1,0,0-.2,0-.4-.2h0ZM43.5,22.7h-.3c-.1,0-.2,0-.2,0,0,0,0,0,0,0,0,0,0,0,0,0,0,0-.1.1-.2.1s-.1,0-.2-.1c0-.1,0-.3,0-.5s0-.4,0-.5c0-.1.1-.2.2-.2s.1,0,.2.1c0,0,0,0,0,0,0,0,0,0,.3,0h.7c.3,0,.5,0,.5,0,0,0,.1,0,.2,0,0,0,0,0,0,0,0,0,.1-.1.2-.1s.1,0,.1.1c0,0,0,.2,0,.3s0,0,0,.2v.2c0,0,0,.2,0,.4,0,.2,0,.3,0,.3,0,.3,0,.5-.2.7,0,.2-.3.3-.5.3s-.2,0-.3,0c0,0-.1-.1-.2-.2,0,0,0,0,0,0,0,0,0,0,0,0,0,0,0,0,0,.1,0,0,0,.1,0,.2,0,0,0,.1-.2.2,0,0-.2,0-.3,0h0c-.1,0-.2,0-.2,0,0,0,0,0,0,0,0,.1,0,.2-.2.2s-.1,0-.2-.2c0-.1,0-.3,0-.5,0,0,0-.2,0-.3,0,0,0-.1,0-.2,0,0,.2-.2.5-.3h0s0,0,0,0c.3,0,.5-.2.4-.3,0,0,0,0,0,0,0,0,0,0,0,0h0ZM44,22.7s0,0,0,0h0c0,.1,0,.2.1.2,0,0,.1,0,.3,0s.2,0,.2,0c0,0,0-.1,0-.2s0-.1,0-.1c0,0-.1,0-.2,0h-.1c0,0,0,0-.1,0h0ZM33.8,21.2c0-.2.2-.2.5-.2l.9-1.2c-.2,0-.3,0-.4-.2,0-.2.3-.2.7-.2s.5,0,.7,0l1.1,1,.5-.6v-.3c0-.2,0-.2.5-.2.3,0,.5,0,.6.2v.3c-.1,0,.8,1.1.8,1.1.3,0,.4.1.5.3,0,0-.2.3-.5.2h-1.2c-.1,0-.4-.1-.4-.2,0-.1,0-.2.2-.3l-.4-.4-.9.9-1.4-1.3-.6.9c.2.1.3.2.3.3,0,0,0,.2,0,.2h-1.2v-.2h-.1ZM42,19.6c0,0,0,.1-.1.1,0,0,0,0,0,0,0,0,0,0,0,.2v.9c0,0,0,.2,0,.2,0,0,0,0,0,0,0,0,0,0,0,0,0,0,.1,0,.1.1s0,.1-.2.2c-.1,0-.3,0-.5,0-.2,0-.4,0-.5,0-.1,0-.2,0-.2-.2s0,0,0-.1c0,0,0,0,0,0,0,0,0,0,0-.3,0-.2,0-.4,0-.8,0,0,0-.2,0-.2,0,0,0,0,0,0,0,0,0,0,0,0,0,0-.1,0-.1-.1,0,0,0-.2.2-.2.1,0,.3,0,.5,0,.2,0,.4,0,.5,0,.1,0,.2,0,.2.1h0ZM22.2,20.8h0c0,.2,0,.2,0,.3,0,0,0,0,0,0,0,0,0,0,0,0,0,0,.2,0,.2.1s0,.1-.2.2c-.1,0-.4,0-.7,0s-.6,0-.7,0c-.1,0-.2,0-.2-.2s0,0,0-.1c0,0,.1,0,.1,0,0,0,0,0,0-.3,0-.2,0-.5,0-.8s0-.2,0-.2c0,0,0,0-.1,0,0,0,0,0,0,0-.1,0-.2,0-.2-.1s0,0,.1-.1c0,0,.2,0,.3,0h.2c0,0,.1,0,.2,0,0,0,.3,0,.5,0,.2,0,.4,0,.5,0,.5,0,.8,0,1,.2.2.1.3.3.3.5s-.1.4-.3.5c-.3.1-.6.2-1,.2h-.3ZM22.2,20.1h0v.3s0,0,0,0c.1,0,.2,0,.3,0,0,0,.1-.2.1-.2s0-.2-.1-.3c0,0-.2,0-.3,0s0,0-.1,0c0,0,0,.1,0,.2h0ZM28.9,20.6v.3c0,0,0,.2,0,.2,0,0,0,0,0,0,0,0,0,0,0,0,0,0,.2,0,.2.1,0,0,0,.1-.2.2,0,0-.3,0-.6,0-.3,0-.5,0-.6,0-.1,0-.2,0-.2-.2s0,0,.1-.1c0,0,0,0,0,0,0,0,0,0,0-.2,0-.1,0-.3,0-.5h0c0-.3,0-.5,0-.6,0,0,0,0,0-.1,0,0,0,0,0,0,0,0-.1,0-.1-.1,0,0,0-.1.1-.1,0,0,.2,0,.4,0h.4c0,0,.2,0,.4,0h.3c.4,0,.6,0,.8.1.2,0,.3.2.3.4s0,.2,0,.2c0,0-.1,0-.2.1,0,0,0,0,0,0,0,0,0,0,0,0,0,0,0,0,.1,0,0,0,.1,0,.2,0,0,0,.2,0,.2.1,0,0,0,.2,0,.3,0,0,0,0,0,0,0,0,0,.2.1.2,0,0,0,0,0,0,.2,0,.2,0,.2.2s0,.1-.2.2c-.1,0-.3,0-.5,0s-.2,0-.3,0c0,0-.2,0-.2,0,0,0-.2-.2-.3-.4h0s0,0,0,0c0-.2-.2-.4-.4-.3h0ZM28.8,20.2s0,0,0,0h0c0,0,.2,0,.2,0,0,0,0-.1,0-.2s0-.1,0-.2c0,0-.1,0-.2,0s-.1,0-.1,0c0,0,0,0,0,.2h0v.2h0ZM24.2,20.1c0-.2.1-.3.3-.4.1-.1.3-.2.5-.3.1,0,.3-.1.5-.1s.4,0,.6,0c.2,0,.4.1.5.2.2.1.3.2.4.4,0,.1.1.3.2.4,0,.2,0,.3,0,.5,0,.2-.1.3-.3.5-.1.1-.3.2-.5.3-.1,0-.3.1-.5.1-.2,0-.4,0-.5,0-.2,0-.3,0-.4-.2,0,0-.2-.1-.3-.2-.2-.2-.3-.4-.3-.5,0-.2,0-.4,0-.6h0ZM25.3,20c0,0,0,.2,0,.3v.3c0,.2,0,.3.1.4,0,0,.1.1.2.2,0,0,.2,0,.2,0,0,0,.1-.1.2-.2,0,0,0-.2,0-.3,0-.1,0-.2,0-.3,0-.2,0-.3-.1-.4,0,0-.1-.2-.2-.2,0,0-.2,0-.2,0,0,0-.1.1-.2.2h0ZM19.4,23l-.6.2h0c-.4.1-.5.2-.6.2,0,0,0,0,0,0,0,0,0,.1-.2.1s-.2,0-.2-.2c0-.1,0-.3,0-.5s0-.4,0-.5c0,0,.1-.2.2-.2s.1,0,.1,0c0,0,0,0,0,0,0,0,0,0,.2,0t0,0l.5-.2c0,0,0,0,.1,0t0,0s0,0,0,0c0,0,0,0-.2,0-.2,0-.4-.2-.5-.2,0,0-.1,0-.2,0s0,0,0,0c0,0,0,0,0,0,0,0,0,0,0,0,0,0,0,0,0,0,0,0-.2,0-.2-.1,0,0,0-.2,0-.3s0-.4,0-.4c0,0,0-.1.2-.1s.2,0,.2.1h0c0,.1.2.2.4.3,0,0,.1,0,.2,0l.6.3c.3,0,.5.2.6.3.2,0,.3.1.3.2,0,0,0,0,0,.1,0,0,0,0,0,.1,0,.1-.3.3-.8.5-.1,0-.2,0-.2,0h0ZM17.7,24.5s0,0,0-.1c0,0,0,0,0-.1,0,0,0,0,0-.1,0,0,0,0,0,0,0,0,.2-.1.3-.2,0,0,.2,0,.3,0s.2,0,.2,0c0,0,0,.1,0,.2s0,0,0,.2c0,0-.1,0-.2.1,0,0,0,0,0,0,0,0-.1,0-.1.1s0,0,0,0c0,0,0,0,.1,0h.6c.2,0,.4,0,.5,0s.2,0,.3,0c0,0,0,0,.1,0,0,0,0,0,0,0,0,0,0-.1.2-.1,0,0,.2,0,.2.2,0,.1,0,.3,0,.6s0,.4,0,.5c0,.1-.1.2-.2.2s-.1,0-.2-.1c0,0,0,0,0,0,0,0-.1,0-.3,0-.2,0-.4,0-.7,0h-.2c-.2,0-.3,0-.3,0,0,0,0,0,0,0s0,0,.1.1c0,0,0,0,0,0,0,0,.1.1.2.2,0,0,0,0,0,.1s0,.1,0,.2c0,0-.1,0-.2,0s-.1,0-.2,0c0,0-.2,0-.3-.1,0,0-.1,0-.2-.1,0,0,0,0,0-.1,0,0,0,0,0-.1,0,0,0,0,0,0v-1.2h0ZM20.2,28.2c0,0-.2,0-.2,0,0,0,0,0,0,0,0,0,0,0-.2,0,0,0-.3,0-.7,0h-.4c-.1,0-.2,0-.3,0,0,0,0,0-.1,0,0,0,0,0,0,0,0,0-.1.1-.2.1s-.2,0-.2-.2c0-.1,0-.3,0-.5s0-.4,0-.5c0-.1.1-.2.2-.2s.1,0,.2.1c0,0,0,0,0,0,0,0,.1,0,.3,0,.2,0,.5,0,.9,0,.1,0,.2,0,.3,0,0,0,0,0,0,0,0,0,0,0,0,0,0,0,.1-.1.2-.1s.2,0,.2.2c0,.1,0,.3,0,.5s0,.4,0,.5c0,.1,0,.2-.2.2h0ZM20.1,32.9c0,0-.1,0-.2,0,0,0,0,0,0,0,0,0,0,0-.2,0,0,0-.3,0-.7,0h-.4c-.1,0-.2,0-.3,0,0,0,0,0-.1,0,0,0,0,0,0,0,0,0,0,.1-.2.1s-.2,0-.2-.2c0-.1,0-.3,0-.5s0-.4,0-.5c0-.1.1-.2.2-.2s.1,0,.2.1c0,0,0,0,0,0,0,0,.1,0,.3,0,.2,0,.5,0,.9,0h.3c0,0,0,0,.1,0,0,0,0,0,0,0,0,0,.2-.1.2-.1,0,0,.2,0,.2.2,0,.1,0,.3,0,.5s0,.4,0,.5c0,.1,0,.2-.2.2h0ZM20.5,36.8c0,.2,0,.4,0,.6,0,.2-.1.3-.2.4,0,0-.2.1-.3.2-.1,0-.2,0-.4.1,0,0-.1,0-.2,0,0,0,0,0,0-.1s0-.2.2-.3c0,0,0,0,0,0,.1-.1.2-.2.2-.3,0-.1,0-.2,0-.3,0,0,0-.2,0-.2,0,0,0,0-.1,0,0,0-.1.1-.2.3,0,0,0,.2,0,.2,0,.3-.2.5-.4.6-.1.1-.3.2-.5.3-.3,0-.5,0-.6-.2-.2-.2-.3-.4-.3-.7,0-.1,0-.3,0-.4,0-.1,0-.2,0-.2,0,0,0,0,0-.1,0,0,0,0,0,0,0,0,0,0,0-.1,0,0,0,0,.1-.1,0,0,.2-.1.2-.2,0,0,.2,0,.2,0,0,0,.1,0,.2,0,0,0,0,.1,0,.2s0,.2-.2.3c0,0,0,0,0,.1,0,0,0,.1-.1.2,0,0,0,.2,0,.2s0,.1,0,.2c0,0,0,0,.1,0,.1,0,.2-.2.3-.5,0,0,0,0,0,0,0-.3.2-.5.3-.6.1-.1.3-.2.5-.3.3,0,.5,0,.7.2.2.2.3.5.3.8h0ZM20.9,39.3l.4,1.3c0,.1,0,.2,0,.3,0,0,0,0-.1,0,0,0-.1,0-.2,0,0,0,0,0,0,0,0,0-.1,0-.3,0-.2,0-.4,0-.8.2-.2,0-.4.1-.5.2,0,0-.2,0-.2,0,0,0,0,0,0,.1,0,0,0,.1-.2.1,0,0-.1,0-.1,0,0,0-.1,0-.2-.2,0,0,0-.1,0-.3,0-.2,0-.4-.1-.6,0-.3-.2-.5-.3-.8,0,0,0,0,0,0,0,0,0-.2,0-.3,0,0,.2-.1.4-.2,0,0,.2,0,.2,0,0,0,.1,0,.1.2,0,0,0,.1,0,.2t0,0c0,0,0,.2,0,.2,0,0,0,.2,0,.3,0,.1.1.2.1.2t0,0s0,0,0,0c0,0,.2,0,.3,0,.1,0,.2,0,.2,0,0,0,0,0,0-.1,0,0,0-.1,0-.1t-.2,0h0c0,0-.2,0-.3,0,0,0,0-.1,0-.2,0,0,.2-.1.4-.2.2,0,.4,0,.5,0,0,0,.1,0,.2.2,0,0,0,.2-.1.2h0c0,0-.1,0-.2,0,0,0,0,0,0,.1,0,0,0,.1,0,.2,0,0,.1,0,.2,0,.2,0,.2,0,.3,0q0,0,.1,0s0,0,0,0c0,0,0-.1,0-.2,0-.1,0-.3-.1-.3,0,0-.1-.2-.2-.2,0,0,0,0-.1,0,0,0-.2,0-.2-.1,0,0,0-.1,0-.2,0,0,0,0,.2,0,0,0,.2,0,.3,0,0,0,.2,0,.3,0,0,0,.2,0,.2.1,0,0,0,0,0,0h0c0,.2,0,.4.1.6h0ZM43,36.9s0,0,0,.2h0c0,0,0,.1.2.2,0,0,.3,0,.5.2.3,0,.5.2.6.2.1,0,.2,0,.2,0,0,0,0,0,0,0,0,0,0,0,.1,0,0,0,.1.1.1.2,0,.1,0,.3,0,.5,0,.2-.1.4-.2.5,0,0-.2.1-.2.1,0,0,0,0,0,0,0,0,0,0,0-.1,0,0,0,0,0-.1,0,0,0,0-.2,0,0,0,0,0,0,0,0,0,0,0-.1,0,0,0,0,.1,0,.2,0,0,0,.2,0,.2,0,0,0,0,0,.1s0,0,0,0c0,0,0,0,.1,0h0c0,0,.2,0,.2,0,0,0,0,0,.1,0,0,0,0,0,0,0,0,0,.1,0,.2,0,0,0,0,0,.1.2,0,.1,0,.4,0,.6,0,.3-.2.5-.2.5,0,.1-.1.2-.2.1,0,0-.1,0-.1-.2,0,0,0,0,0,0,0,0,0,0-.1-.1,0,0-.3-.1-.5-.2-.2,0-.4-.1-.6-.2-.1,0-.2,0-.2,0,0,0,0,0,0,0,0,0-.1,0-.2,0,0,0-.1-.1-.2-.2,0-.1.1-.3.2-.5,0-.2.1-.4.2-.5,0-.1.2-.1.2-.1,0,0,0,0,0,0s0,0,0,.1h0c0,0,0,0,0,0,0,0,0,0,.1,0,0,0,.1,0,.2,0,0,0,.2,0,.2,0,0,0,0-.1,0-.2,0,0,0-.2,0-.2s0-.1,0-.1,0,0,0,0c0,0,0,0,0,0-.1,0-.2,0-.3,0h-.1s0,0,0,0c0,0-.2.1-.2.1,0,0,0-.1,0-.2,0-.1,0-.3.1-.5,0-.2.1-.3.2-.4,0,0,.2,0,.2,0h0ZM36.7,46.2c.2-.1.3-.3.5-.4.1-.1.3-.3.5-.4,0,0,0,0,.1,0s0,0,.1,0c0,0,0,0,0,.2,0,0,0,0,0,0,0,0,0,0,0,.1,0,0,.1.2.2.3,0,0,.1.1.2.2.2.1.3.3.3.3,0,0,0,0,.1,0,0,0,0,0,0,0,0,0,0,0,0,0,0,0,0,0,0,0s0,0,0,0c0,0,0,.2,0,.3,0,.1-.2.3-.4.5-.2.2-.4.4-.5.5-.1,0-.2,0-.3,0,0,0,0-.2,0-.3h0c0-.1,0-.2,0-.2s0,0,0,0c0,0,0-.1-.1-.2,0,0-.1-.2-.3-.4,0,0,0-.1-.1-.2,0,0-.2-.2-.2-.2,0,0,0,0,0,0,0,0,0,0,0,0,0,0-.1,0-.1,0,0,0-.2.2-.2.3,0,0,0,.2,0,.2s0,0,0,0c0,.1,0,.2,0,.3,0,0-.1,0-.2,0s-.1,0-.2,0c0,0,0-.2,0-.3s0-.2,0-.3c0,0,0-.1,0-.1,0,0,0,0,0-.1h0c.1-.1.2-.2.4-.3h0ZM24.3,45.1l.9.9c0,0,.1.2.1.2,0,0,0,0,0,0,0,0-.1,0-.2,0,0,0,0,0,0,0,0,0-.2,0-.3.1-.2,0-.3.2-.6.5-.2.1-.3.2-.4.3,0,0-.1.1-.1.2,0,0,0,0,0,.1,0,0,0,.1,0,.2,0,0,0,0-.2,0,0,0-.2,0-.2,0,0,0,0,0-.2-.2-.1-.2-.3-.3-.4-.5-.2-.2-.4-.4-.6-.5,0,0,0,0,0,0,0,0,0-.2,0-.2,0,0,.1-.2.2-.3,0,0,.1-.1.2-.1s.1,0,.2,0c0,0,0,.1,0,.2q0,0,0,0s0,.1,0,.2c0,0,0,.1.2.2,0,0,.2.1.2.2t0,0s0,0,0,0c.1,0,.2,0,.2-.1,0,0,.1-.1.1-.2,0,0,0,0,0,0,0,0,0,0,0,0q0,0-.2,0h0c0,.1-.2,0-.3,0,0,0,0,0,0-.2,0,0,.1-.2.3-.3.2-.1.3-.3.4-.3,0,0,.2,0,.2,0,0,0,0,.1,0,.2h0c0,0,0,.1-.1.1,0,0,0,0,0,.1,0,0,.1,0,.2,0,0,0,0,0,.2-.1.1-.1.2-.2.2-.2q0,0,0,0s0,0,0,0c0,0,0,0-.1-.2,0,0-.2-.2-.3-.2,0,0-.2,0-.3,0,0,0,0,0-.1,0-.1,0-.2,0-.2,0,0,0,0,0,0-.2,0,0,0,0,.1-.1,0,0,.1-.1.2-.1,0,0,.2,0,.3,0,0,0,.2,0,.2,0,0,0,0,0,0,0h0c0,.2.2.3.4.5h0ZM22.8,43.1l.7,1s0,0,0,.1c0,0,0,0-.1.1,0,0-.1,0-.2,0,0,0,0,0,0,0,0,0-.1,0-.2,0,0,0-.2,0-.4.3l-.3.2c-.2.1-.4.2-.4.3,0,0,0,0,0,.1h0c0,.1,0,.1,0,.2s0,0,0,0c0,0,0,0,0,0,0,0-.2,0-.3,0,0,0-.2-.2-.4-.4-.1-.2-.2-.4-.2-.5,0-.1,0-.2,0-.2,0,0,.1,0,.2,0t0,0s0,0,0,0c0,0,0,0,0,0,0,0,0,0,.2-.1,0,0,.2-.1.4-.3h.2c.2-.2.2-.3.3-.3,0,0,.1,0,.1,0,0,0,0,0,0,0,0,0,0,0,0-.2,0,0-.1-.2-.2-.2,0,0-.1,0-.2,0,0,0,0,0,0,0-.1,0-.2,0-.2,0,0,0,0-.1,0-.2,0,0,0-.1.1-.2,0,0,.2,0,.3-.1.1,0,.2,0,.3,0,0,0,.1,0,.1,0,0,0,0,0,.1,0h0c0,.1.1.3.2.4h0ZM31.9,27.3c0,.1,1,.2,1.1,0v-.4s0-.2,0-.2c0,0,.6,0,.8-.1v-.4c-.6-.3-1.6-.7-2.3-1.3-.9-.3-2.1-.2-2,.5,0,.4,3.4.5,2.5,1v.8h0ZM35,26.4c-.4,0-.8,0-1.1.6,0,.1,0,.6.3.4.4-.2,1.3,0,1.7-.1,0-.7,0-.9-1-.8h0ZM37.1,26.8c-.3,0-.5.2-.6.2v.4c.2,0,.7,0,.9,0,0,0,0-.6-.3-.6h0ZM52.5,31.2c.2-1.1,1-3.8.8-4.7,0-.3-.5-.2-.7,0,0,1.3-.5,3.7-1,4.4.5-1.4.7-2.9.8-4.5-.2-.1-.7-.1-.7,0,0,1.9-1.1,6.1-2.1,7.6,1.5.2,2.4-1.2,3-2.9h0ZM54.3,32.8c.5-1.2,1-3.6,1.2-6.3-.2-.5-.9-.4-1.1.1,0,1.8-.1,3.8-.6,4.7.3-1.9.2-3.4.2-4.9-.2-.1-.5,0-.6.2.2,2.5-.9,8.2-2.3,10.3.6.4,2.7-1.8,3.2-4.1h0ZM56.8,33.5c.5-1.1.6-3.8.8-6.5-.2-.7-.9-.7-1,0,.4,1.6-.3,3.3-.5,6.1-.3-3,.6-4.2.3-6.2-.2-.6-.6-.5-.7.1,0,.7-.1,2-.5,2.9,0,1,0,2.7-.4,3.5.4,1.6-.5,4.2-1.1,5.2.4,1.5,2.8-3.2,3.2-5.2h0ZM59.2,36.4c.5-1.2.5-6.1.5-8.8-.2-1-.9-1.1-1,0,0,3.3,0,9.4-.5,8.8.1-1.7.4-6.4.3-8.8,0-1-.9-.9-.7,0,0,.6-.1,2.7-.2,3.7-.9,2.9-.4,3.6-.6,4.5.4,1.6.1,4.6,0,5.9.6,1.5,2.1-3.4,2.3-5.4h0ZM48,28.9c-1,2-2.5,5.4-1.3,8,.5.8,1.3.9,1.9,1,.8-.2,1.6-.7,1.4-2,0-.2-.7-.9-1.1-.8-.3,0-.8.3-1,.8-1.4-2.9,3.2-7.3,2-13.8-.4-1.9-2.3-3.8-3.4-3.8v1.1c2,.9,3.7,4.5,1.4,9.6h0ZM55.3,25.3c0-1,.1-2.3,0-3.1-.2-.3-.5-.2-.6.1,0,.7,0,1.7-.2,2.2-.1-.5-.2-1.7,0-2.2-.1-.4-.3-.4-.6,0,0,.3,0,1.3,0,1.8v1.2c0,.8,1.6.7,1.6,0h0ZM57.4,24.6c0-.7,0-1.8,0-2.5-.1-.3-.8,0-.8,0-.2.6,0,2.3-.3,2.4-.2,0,0-1.8,0-2.5-.3-.2-.7,0-.7.3,0,.5,0,1.4,0,2.8.3,1.9,2,.7,1.9-.5h0ZM57.6,24.5c-.3,2.6,2.3,2,2,.2,0-.8,0-1.9,0-2.9-.2-.3-.4-.3-.7,0,0,.5,0,2.4,0,2.6,0,.9-.7.9-.7,0,0-1.7,0-1.3,0-2.5-.2-.3-.6-.2-.6,0,0,.5,0,1.8,0,2.7h0ZM53.7,22.3c-.2-.1-.7,0-.8.3,0,.3,0,.6-.1,1-.1-.2-.2-.7-.2-1.2-.2-.2-.5-.2-.7,0,0,.5,0,1.3,0,1.7,0,2.1,1.6,1.5,1.6.1,0-.5.1-1.4.2-2h0ZM51.7,24.7c0-.3,0-1.7,0-2.2-.1,0-.6-.1-.7.2,0,.3,0,1.2,0,1.4-.2-.5,0-1.4-.3-1.4,0-.1-.3,0-.3.4s0,1.5.1,2c.2.6,1,.5,1.2-.4h0ZM62.5,26.7c-.7.2-1.2.5-1.2,1,.5,3.7-.2,7.9-1.2,11.1-.1-1.1,1.1-7,.7-10.1.3-1.1-.2-1.9-.8-1.8.3,4.2-.3,9.7-.6,13.1,0,1.1-1.1,5.6-1.4,6.7,1,0,2.4-3.5,3.1-7.1,1.2-3.2,1.5-6.7,1.5-7.6.2-.4.1-5.3-.2-5.2h0ZM61.2,26.9c.7,0,1.2-.5,1.3-.7.2-1.2.2-3.6.2-5-.3-.1-.8,0-.9.7.2,1.5.2,2.9,0,3.5-.1.4-.8.2-.9-.1-.1-.4-.2-1.6-.2-3.5-.3-.4-.6-.4-.8-.1-.4,4.3-.2,4.9,1.3,5.3h0ZM61,22.1c.2-.1.3-.2.5,0,0,1,0,2.1,0,3.1,0,.4-.4,0-.3-.2-.1-.9,0-1.9,0-2.8h0ZM58.5,22.1c0-.1.2-.1.3,0,0,.8,0,1.6,0,2.4,0,.3-.3,0-.2-.2,0-.7,0-1.5,0-2.2h0ZM11.3,30.9c-.2-1.1-1-3.9-.8-4.8,0-.3.4-.2.6,0-.1,1.3,0,2.9.5,3.6-.5-1.5-.1-2.3-.1-3.9.2,0,.6-.1.6,0-.1,2.1.3,7.1,1.4,8.7-1.6.2-1.7-1.9-2.3-3.6h0ZM9.1,33.4c-.5-1.2-.4-4.1-.7-6.8.1-.5.6-.4.8,0,0,1.8,0,4.1.6,5-.4-2-.2-3.5-.3-5-.3-.1,0-1.1.7-.5,0,1.5.3,3.9.4,5.1,1.2,1.2.6,5,1.1,5.7-.6.5-1.9-1.4-2.6-3.6h0ZM1.9,26.8c-.7,0-1.1-1.2-1.2-1.5,0-1.3,0-4.2.2-5.8.3-.1.8-.6.9.1-.4,1.6-.5,4.4-.5,4.9,0,1.7,1.1,1.5,1.1-.1,0-.3.4-2.1.5-4.1.3-.4.4,0,.6.4-.5,5.7-.3,6.3-1.6,6.1h0ZM5.2,20.5c0,0-.2,0-.3,0-.2,1.4-.3,2.9-.3,4.3,0,.6.3,0,.3-.3.2-1.3.3-2.6.4-3.9h0ZM2.6,20.1c-.2-.2-.3-.3-.5,0,0,1.6-.4,3.3-.3,4.8.1.7.4-.4.3-.7,0-1.4.5-2.6.5-4.1h0ZM1.9,13c.2.6,0,1.4-.5,1.5-.5-2,.5-2.7.5-1.5h0ZM2.6,18.8c.2,0,.6-1.1.7-1,0,0-.7,2.4.5,1.3,0-.2.2-.7.2-1,.3-1.5-1.5-2.1-2.1-.8-.1.2-.7,1.3,0,1.5.2,0,.7-1.2.8-1.2.4,0-.4,1.1,0,1.3h0ZM6.4,18.8c.2-1.1-1.5-1.8-1.9-.3-.3.8-.3,1.1,0,1.2.3,0,.5-.9.6-.9-.2.6,0,1,0,1,.3,0,.4-.9.5-.9v1.1c.2.1.4,0,.5,0,0-.4.2-.9.2-1.2h0ZM6.6,19.3c0,.6-.1,1.3.5,1.2v-.5c.1,0,.3.5.3.5,0,0,.2,0,.3,0,0,0,.2-.6.3-.6.1,0,.1.6.2.6.5,0,.5-.5.5-1.2,0-1.1-1.5-2-2,0h0ZM10.5,20c0,.6-.3,1.3-.4,1v-.7c0,0-.2.6-.2.6,0,0-.3,0-.4,0,0,0,0-.5,0-.6-.1,0-.2.6-.2.6-.5,0-.4-.3-.4-.9,0-1.2,2-1.6,1.7,0h0ZM10.6,20.2c0,.5-.2.9.3.9l.2-.4v.4c0,0,.2.1.3,0,0,0,.2-.4.2-.4.1,0,0,.5,0,.5.4,0,.4-.3.5-.8,0-.8-.9-1.7-1.5-.2h0ZM14,20.9c0,.4.1.8-.4.7v-.3c-.1,0-.2.3-.2.3,0,0-.2,0-.3,0,0,0-.2-.4-.2-.4-.1,0-.1.4-.2.4-.5,0-.5-.3-.5-.7,0-.7,1.3-1.3,1.8,0h0ZM5.7,24c0,4.1-2.6,3.2-2.1,0,.1-1,.3-2.6.3-3.6.3-.3.4-.1.6.2,0,.5-.3,3.9-.3,4.2,0,1,.6,1.1.7.2,0-1.8.3-2.7.4-4.1.2-.3.5,0,.5.1,0,.5-.2,2.1-.2,3h0ZM5.9,24.1c0-.8.1-2.1.2-2.9.2-.3.5-.3.6,0,0,.8-.4,3.5,0,3.6.5.5.6-2.9.7-3.6.3-.2.6,0,.6.3,0,.6-.2,1.8-.2,3.3-.7,2.9-2.3,1.1-1.9-.7h0ZM8.2,24.9c0-1,0-2.5.2-3.2.2-.3.2-.3.4,0,0,.8-.4,3,0,2.9.5.3.9-2.2.7-2.7.2-.4.3-.5.6,0,0,.3,0,1.3,0,1.8-.2.6-.2,1-.2,1.2-.3,1.1-2.3,1.1-1.9,0h0ZM10.4,22.2c.2,0,.6-.3.6,0,0,.2-.2,2.2.3,2.4.6-.3.3-2,.4-2.5.2-.1.4,0,.5.1,0,.6,0,1.5,0,2-.3,2.1-1.9,1.1-1.9-.3s.1-1.1.2-1.8h0ZM12.4,24.7c0-.4,0-1.8,0-2.4,0,0,.4-.2.5,0,0,.3,0,1.2,0,1.5.5,0,.2-1.5.4-1.5,0-.1.3,0,.3.4,0,.6,0,1.3-.2,1.7-.2.3-1,.7-1.1,0h0ZM.5,27.5c.7.2,1.1.6,1,1.1-.6,3.9.3,9.5,1.1,11.4.2-1.1-1.1-8.7-.5-11.8.4-.6.5-.5,1.2-.3-1,4.6,1.4,10,.5,12.3.2,1,.7,5.1.5,6.3-.8,0-2-3.1-2.8-7-.9-3.4-1.1-6.2-1-7.2-.2-.4-.2-4.9,0-4.8h0ZM4.6,36.7c-.6-1.2-.6-6-.8-8.8,0-1,.9-1.2,1.1,0,.2,3.3.7,11.1,1.1,10.4-.3-1.7-.6-8-.8-10.4-.1-1,1.1-1,1,0,.2.6.4,4.1,0,4.8,1.2,2.8.2,3.1.5,4,.9,1.9.1,3.3.4,4.5-.5,1.6-2.1-2.5-2.4-4.4h0ZM6.9,33.9c-.6-1.1-.1-3.9-.6-6.7.1-.5.5-.6.7,0-.3,1.6,0,3.1.5,6,0-3.1-.4-4-.2-6,.2-.7.7-.6.8,0,0,.7-.2,1.8.3,2.7,0,.8-.3,2.2.3,4.3.6,1.6.3,3.2.5,4.2-1.7-.9-1.8-2.4-2.4-4.4h0ZM13.6,27.2c0,1.1,0,3.1.2,4.5-.7,0-.9-2.8-1.2-2.8-.2-1-.5-2.1-.2-3.2.2,0,.1.8.4,1.3,0-1.4.5-2.2.8.2h0ZM61.7,12.5c.2,0,.5,0,.8.2,0,.5-.3,1-.5,1.4-.3-.2-.4-.7-.4-1.6h0ZM50.8,20.9c0-.1-.6,0-.6,0,0,.8.2,1.7,1.4,1.2.4-.3.2-1.2,0-1.5.1-.1-.5,0-.5.1.1.1-.3,1-.4.1h0ZM52.5,20.4c0-.2-.6,0-.6.2,0,.9.2,1.9,1.5,1.3.4-.3.2-1.5,0-1.7,0-.1-.5,0-.6.1.2.6-.3,1.6-.4.1h0ZM54.3,19.9c0-.2-.5,0-.5.1,0,1,.2,2.1,1.3,1.5.3-.4.2-1.7,0-1.9,0-.1-.4,0-.5.1.2.7-.3,1.8-.4.2h0ZM55.9,19.1c0-.1-.5,0-.5.2,0,1.3,0,2.8,1.5,1.9.5-.5.1-2.4,0-2.7.1-.2-.5.1-.5.4.3,1.1-.3,2.6-.5.3h0ZM58,18c0-.2-.8,0-.8.3.1,2,.2,3.9,2.2,2.6.5-.6.2-3.1.2-3.8.2-.3-.7.2-.8.5.4,1.6-.5,3.9-.7.4h0ZM60.5,16.8s-.6,0-.6.3c0,2,0,4.9,2.4,3.4.5-.6.1-3,.1-3.7.2-.3-.6-.7-.8-.4.4,3.1-.8,5.8-1.1.3h0ZM16.1,27.2c0-2.1-.4-1.9-.9-1.6,0,.5,0,1.8.2,1.8.4,0,.3-.2.7-.2h0ZM47.6,26.9c0-2.1-.4-1.9-.9-1.6,0,.5,0,1.8.2,1.8.4,0,.3-.2.7-.2h0ZM48.7,25.3c-.6-.4-.5-.2-.9,0,0,.5.2,1.6.4,1.6.4-.2.4-1.2.5-1.6h0ZM47.6,24c0-2.6-1.6-1.6-.8.9.6.4,1.5,0,1.9-.2.4-2.5-1.1-3.3-.7-.8,0,.2-.4-.2-.4,0h0ZM46.7,20c0,.7-.2,1.5.2,1.9.5-.4.7-.4,1.2-.5,0-.5-1.1-1.6-1.4-1.5h0ZM46.7,28.3v-.6c.3-.3.8-.4,1.2-.3,0,.2,0,.4,0,.6-.4.3-.8.4-1.3.3h0ZM50.1,28c0,1-.2,2.5-.2,3.7.7,0,.9-2.2,1.1-2.2,0-.9.5-1.8.1-2.7-.2,0-.3.5-.5,1-.2-1.1-.5-1.1-.5.2h0ZM11.4,39.7c-.9-.9-3.4-1.1-3.7.4,0,.5,1.3.1,1.4.1.3.3-1.7.4-1.4,1.5.7.1,5.5-1,2.8,3.4,2.8,0,2.7-2.5,2.2-4.3,1.1-1,3.6-2.6,3.2-2.9-.8.3-1.6.4-2.3,0-.4.2-1.6,1.4-2.3,1.7h0ZM16.8,40.9h.2c0-1.3-.2-2.3-1.2-2,0,1,.5,2,1,2h0ZM40.7,7.4c0,.2,0,.4.2.6.5.4.9.5.7.2-.6-.3-.5-1-.9-.8h0Z"/>
  <g>
    <path class="st0" d="M74.3,18.4h2.3v6.7c0,.7,0,1.3.3,1.6.3.6.9.9,1.8.9s1.5-.3,1.8-.9c.2-.3.3-.9.3-1.6v-6.7h2.3v6.7c0,1.2-.2,2.1-.5,2.7-.7,1.2-1.9,1.8-3.8,1.8s-3.2-.6-3.8-1.8c-.4-.6-.5-1.5-.5-2.7v-6.7Z"/>
    <path class="st0" d="M85.2,18.4h2.4l4.3,7.6v-7.6h2.1v10.9h-2.3l-4.4-7.7v7.7h-2.1v-10.9Z"/>
    <path class="st0" d="M98.2,29.3h-2.3v-10.9h2.3v10.9Z"/>
    <path class="st0" d="M106.7,18.4h2.4l-3.7,10.9h-2.2l-3.7-10.9h2.4l2.4,8.3,2.4-8.3Z"/>
    <path class="st0" d="M118.5,20.3h-5.8v2.3h5.3v1.9h-5.3v2.8h6v2h-8.3v-10.9h8v1.9Z"/>
    <path class="st0" d="M127.6,18.6c.4.2.7.4,1,.8.2.3.4.6.5.9.1.3.2.7.2,1.1s-.1,1-.4,1.5-.7.9-1.3,1.1c.5.2.9.5,1.1.9.2.4.3.9.3,1.7v.7c0,.5,0,.8,0,1,0,.3.2.5.4.6v.3h-2.5c0-.2-.1-.4-.1-.6,0-.3,0-.6,0-.9v-1c0-.7-.1-1.2-.4-1.4-.2-.2-.7-.3-1.3-.3h-2.2v4.3h-2.2v-10.9h5.2c.7,0,1.3.1,1.7.3ZM122.9,20.3v2.9h2.5c.5,0,.9,0,1.1-.2.4-.2.6-.6.6-1.2s-.2-1.1-.6-1.3c-.2-.1-.6-.2-1.1-.2h-2.5Z"/>
    <path class="st0" d="M133.2,25.9c0,.5.2.9.4,1.1.4.4,1,.7,1.9.7s1,0,1.3-.2c.7-.2,1-.6,1-1.3s-.2-.6-.5-.8c-.3-.2-.8-.4-1.5-.5l-1.2-.3c-1.2-.3-2-.5-2.4-.8-.7-.5-1.1-1.3-1.1-2.4s.4-1.8,1.1-2.4c.7-.6,1.8-1,3.2-1s2.2.3,3,.9c.8.6,1.3,1.5,1.3,2.7h-2.2c0-.7-.3-1.1-.9-1.4-.4-.2-.8-.3-1.4-.3s-1.1.1-1.4.4c-.4.2-.5.6-.5,1s.2.7.5.9c.2.1.7.3,1.4.5l1.9.5c.8.2,1.5.5,1.9.8.7.5,1,1.3,1,2.2s-.4,1.8-1.2,2.5c-.8.7-1.9,1-3.3,1s-2.6-.3-3.4-1c-.8-.6-1.2-1.5-1.2-2.7h2.2Z"/>
    <path class="st0" d="M143.7,29.3h-2.3v-10.9h2.3v10.9Z"/>
    <path class="st0" d="M152.3,18.6c.8.3,1.4.7,1.9,1.4.4.5.6,1.1.8,1.8.1.6.2,1.2.2,1.8,0,1.5-.3,2.7-.9,3.7-.8,1.4-2,2-3.7,2h-4.7v-10.9h4.7c.7,0,1.2,0,1.7.2ZM148.1,20.3v7.1h2.1c1.1,0,1.8-.5,2.3-1.6.2-.6.3-1.3.3-2.1s-.2-2-.5-2.6-1-.9-2.1-.9h-2.1Z"/>
    <path class="st0" d="M159.9,18.4h2.6l3.9,10.9h-2.5l-.7-2.2h-4l-.7,2.2h-2.4l3.9-10.9ZM159.8,25.2h2.8l-1.4-4.3-1.4,4.3Z"/>
    <path class="st0" d="M174.1,18.6c.8.3,1.4.7,1.9,1.4.4.5.6,1.1.8,1.8.1.6.2,1.2.2,1.8,0,1.5-.3,2.7-.9,3.7-.8,1.4-2,2-3.7,2h-4.7v-10.9h4.7c.7,0,1.2,0,1.7.2ZM170,20.3v7.1h2.1c1.1,0,1.8-.5,2.3-1.6.2-.6.3-1.3.3-2.1s-.2-2-.5-2.6-1-.9-2.1-.9h-2.1Z"/>
    <path class="st0" d="M182.9,18.4h2.4l4.3,7.6v-7.6h2.1v10.9h-2.3l-4.4-7.7v7.7h-2.1v-10.9Z"/>
    <path class="st0" d="M197,18.4h2.6l3.9,10.9h-2.5l-.7-2.2h-4l-.7,2.2h-2.4l3.9-10.9ZM196.8,25.2h2.8l-1.4-4.3-1.4,4.3Z"/>
    <path class="st0" d="M205.9,19.5c.9-.9,2-1.3,3.4-1.3s3.1.6,4,1.8c.5.7.7,1.4.7,2h-2.3c-.1-.5-.3-.9-.6-1.2-.4-.5-1-.7-1.8-.7s-1.5.3-1.9,1c-.5.7-.7,1.6-.7,2.8s.2,2.1.7,2.8c.5.6,1.1.9,1.9.9s1.4-.3,1.8-.8c.2-.3.4-.7.6-1.3h2.3c-.2,1.2-.7,2.2-1.5,2.9-.8.7-1.8,1.1-3.1,1.1s-2.8-.5-3.7-1.5c-.9-1-1.3-2.4-1.3-4.2s.5-3.4,1.5-4.4Z"/>
    <path class="st0" d="M217.8,29.3h-2.3v-10.9h2.3v10.9Z"/>
    <path class="st0" d="M228.4,28.3c-.8.8-2,1.3-3.6,1.3s-2.8-.4-3.6-1.3c-1.1-1-1.7-2.5-1.7-4.5s.6-3.5,1.7-4.5c.8-.8,2-1.3,3.6-1.3s2.8.4,3.6,1.3c1.1,1,1.7,2.5,1.7,4.5s-.6,3.5-1.7,4.5ZM226.9,26.6c.5-.7.8-1.6.8-2.8s-.3-2.2-.8-2.8c-.5-.7-1.2-1-2.2-1s-1.6.3-2.2,1c-.5.7-.8,1.6-.8,2.8s.3,2.2.8,2.8c.5.7,1.3,1,2.2,1s1.6-.3,2.2-1Z"/>
    <path class="st0" d="M231.7,18.4h2.4l4.3,7.6v-7.6h2.1v10.9h-2.3l-4.4-7.7v7.7h-2.1v-10.9Z"/>
    <path class="st0" d="M245.8,18.4h2.6l3.9,10.9h-2.5l-.7-2.2h-4l-.7,2.2h-2.4l3.9-10.9ZM245.7,25.2h2.8l-1.4-4.3-1.4,4.3Z"/>
    <path class="st0" d="M253.7,18.4h2.3v8.9h5.4v2h-7.7v-10.9Z"/>
    <path class="st0" d="M77.4,36.6h2.6l3.9,10.9h-2.5l-.7-2.2h-4l-.7,2.2h-2.4l3.9-10.9ZM77.2,43.3h2.8l-1.4-4.3-1.4,4.3Z"/>
    <path class="st0" d="M85.9,36.6h2.3v6.7c0,.7,0,1.3.3,1.6.3.6.9.9,1.8.9s1.5-.3,1.8-.9c.2-.3.3-.9.3-1.6v-6.7h2.3v6.7c0,1.2-.2,2.1-.5,2.7-.7,1.2-1.9,1.8-3.8,1.8s-3.2-.6-3.8-1.8c-.4-.6-.5-1.5-.5-2.7v-6.7Z"/>
    <path class="st0" d="M105.4,36.6v1.9h-3.3v9h-2.3v-9h-3.3v-1.9h8.8Z"/>
    <path class="st0" d="M115.8,46.5c-.8.8-2,1.3-3.6,1.3s-2.8-.4-3.6-1.3c-1.1-1-1.7-2.5-1.7-4.5s.6-3.5,1.7-4.5c.8-.8,2-1.3,3.6-1.3s2.8.4,3.6,1.3c1.1,1,1.7,2.5,1.7,4.5s-.6,3.5-1.7,4.5ZM114.3,44.8c.5-.7.8-1.6.8-2.8s-.3-2.2-.8-2.8c-.5-.7-1.2-1-2.2-1s-1.6.3-2.2,1c-.5.7-.8,1.6-.8,2.8s.3,2.2.8,2.8c.5.7,1.3,1,2.2,1s1.6-.3,2.2-1ZM114.7,33.1l-2.3,2.2h-1.5l1.4-2.2h2.4Z"/>
    <path class="st0" d="M119.8,36.6h2.4l4.3,7.6v-7.6h2.1v10.9h-2.3l-4.4-7.7v7.7h-2.1v-10.9Z"/>
    <path class="st0" d="M139.8,46.5c-.8.8-2,1.3-3.6,1.3s-2.8-.4-3.6-1.3c-1.1-1-1.7-2.5-1.7-4.5s.6-3.5,1.7-4.5c.8-.8,2-1.3,3.6-1.3s2.8.4,3.6,1.3c1.1,1,1.7,2.5,1.7,4.5s-.6,3.5-1.7,4.5ZM138.4,44.8c.5-.7.8-1.6.8-2.8s-.3-2.2-.8-2.8c-.5-.7-1.2-1-2.2-1s-1.6.3-2.2,1c-.5.7-.8,1.6-.8,2.8s.3,2.2.8,2.8c.5.7,1.3,1,2.2,1s1.6-.3,2.2-1Z"/>
    <path class="st0" d="M151.1,36.6h3.3v10.9h-2.1v-7.4c0-.2,0-.5,0-.9,0-.4,0-.7,0-.9l-2.1,9.2h-2.2l-2.1-9.2c0,.2,0,.5,0,.9,0,.4,0,.7,0,.9v7.4h-2.1v-10.9h3.3l2,8.6,2-8.6Z"/>
    <path class="st0" d="M160.3,36.6h2.6l3.9,10.9h-2.5l-.7-2.2h-4l-.7,2.2h-2.4l3.9-10.9ZM160.1,43.3h2.8l-1.4-4.3-1.4,4.3Z"/>
    <path class="st0" d="M179.4,36.8c.8.3,1.4.7,1.9,1.4.4.5.6,1.1.8,1.8.1.6.2,1.2.2,1.8,0,1.5-.3,2.7-.9,3.7-.8,1.4-2,2-3.7,2h-4.7v-10.9h4.7c.7,0,1.2,0,1.7.2ZM175.3,38.5v7.1h2.1c1.1,0,1.8-.5,2.3-1.6.2-.6.3-1.3.3-2.1s-.2-2-.5-2.6-1-.9-2.1-.9h-2.1Z"/>
    <path class="st0" d="M192.7,38.5h-5.8v2.3h5.3v1.9h-5.3v2.8h6v2h-8.3v-10.9h8v1.9Z"/>
    <path class="st0" d="M207.5,36.6h3.3v10.9h-2.1v-7.4c0-.2,0-.5,0-.9,0-.4,0-.7,0-.9l-2.1,9.2h-2.2l-2.1-9.2c0,.2,0,.5,0,.9,0,.4,0,.7,0,.9v7.4h-2.1v-10.9h3.3l2,8.6,2-8.6Z"/>
    <path class="st0" d="M221.6,38.5h-5.8v2.3h5.3v1.9h-5.3v2.8h6v2h-8.3v-10.9h8v1.9ZM220.2,33.5l-2.3,2.2h-1.5l1.4-2.2h2.4Z"/>
    <path class="st0" d="M226.1,47.5h-2.7l3.5-5.6-3.3-5.4h2.7l1.9,3.6,2-3.6h2.6l-3.3,5.3,3.5,5.6h-2.8l-2.1-3.7-2.2,3.7Z"/>
    <path class="st0" d="M237.2,47.5h-2.3v-10.9h2.3v10.9Z"/>
    <path class="st0" d="M241,37.7c.9-.9,2-1.3,3.4-1.3s3.1.6,4,1.8c.5.7.7,1.4.7,2h-2.3c-.1-.5-.3-.9-.6-1.2-.4-.5-1-.7-1.8-.7s-1.5.3-1.9,1c-.5.7-.7,1.6-.7,2.8s.2,2.1.7,2.8c.5.6,1.1.9,1.9.9s1.4-.3,1.8-.8c.2-.3.4-.7.6-1.3h2.3c-.2,1.2-.7,2.2-1.5,2.9-.8.7-1.8,1.1-3.1,1.1s-2.8-.5-3.7-1.5c-.9-1-1.3-2.4-1.3-4.2s.5-3.4,1.5-4.4Z"/>
    <path class="st0" d="M259.9,46.5c-.8.8-2,1.3-3.6,1.3s-2.8-.4-3.6-1.3c-1.1-1-1.7-2.5-1.7-4.5s.6-3.5,1.7-4.5c.8-.8,2-1.3,3.6-1.3s2.8.4,3.6,1.3c1.1,1,1.7,2.5,1.7,4.5s-.6,3.5-1.7,4.5ZM258.5,44.8c.5-.7.8-1.6.8-2.8s-.3-2.2-.8-2.8c-.5-.7-1.2-1-2.2-1s-1.6.3-2.2,1c-.5.7-.8,1.6-.8,2.8s.3,2.2.8,2.8c.5.7,1.3,1,2.2,1s1.6-.3,2.2-1Z"/>
  </g>
</svg>